<svg width="49" height="49" viewBox="0 0 49 49" fill="none" xmlns="http://www.w3.org/2000/svg">
<path d="M24.0875 48.8133C17.7226 48.8133 12.2552 46.6831 7.68545 42.4227C3.11523 38.1622 0.559231 32.9049 0.0174537 26.6507C-0.0589908 26.0524 0.115676 25.5271 0.541454 25.0747C0.966787 24.6222 1.50523 24.3907 2.15679 24.38C2.76523 24.3693 3.29034 24.5689 3.73212 24.9787C4.17345 25.388 4.45456 25.9136 4.57545 26.5553C5.09634 31.5602 7.19501 35.764 10.8715 39.1667C14.5475 42.5698 18.9521 44.2713 24.0855 44.2713C29.677 44.2713 34.4177 42.3078 38.3075 38.3807C42.1972 34.4535 44.1421 29.688 44.1421 24.084C44.1421 18.6138 42.1783 13.9918 38.2508 10.218C34.3228 6.44466 29.601 4.558 24.0855 4.558C21.1481 4.558 18.3892 5.21244 15.8088 6.52133C13.2279 7.82977 10.9757 9.56955 9.05212 11.7407H13.6215C14.2223 11.7407 14.7219 11.9398 15.1201 12.338C15.5183 12.7362 15.7175 13.2358 15.7175 13.8367C15.7175 14.446 15.5183 14.9502 15.1201 15.3493C14.7219 15.7484 14.2223 15.948 13.6215 15.948H3.73612C3.08412 15.948 2.54256 15.7324 2.11145 15.3013C1.68079 14.8707 1.46545 14.3291 1.46545 13.6767V3.858C1.46545 3.25756 1.66234 2.76089 2.05612 2.368C2.44945 1.97511 2.94834 1.77867 3.55279 1.77867C4.15723 1.77867 4.65634 1.97511 5.05012 2.368C5.4439 2.76089 5.64079 3.25756 5.64079 3.858V8.67C7.98345 5.97978 10.749 3.86222 13.9375 2.31733C17.1259 0.772441 20.5086 0 24.0855 0C27.4721 0 30.6559 0.635554 33.6368 1.90666C36.6181 3.17778 39.2286 4.90978 41.4681 7.10266C43.7081 9.29555 45.4708 11.8602 46.7561 14.7967C48.0415 17.7331 48.6841 20.8947 48.6841 24.2813C48.6841 27.668 48.0415 30.8518 46.7561 33.8327C45.4708 36.8135 43.7081 39.4116 41.4681 41.6267C39.2286 43.8418 36.6181 45.5933 33.6368 46.8813C30.6559 48.1693 27.4728 48.8133 24.0875 48.8133ZM26.4635 23.4853L34.0155 30.8847C34.4497 31.318 34.6668 31.8224 34.6668 32.398C34.6668 32.9735 34.4535 33.4733 34.0268 33.8973C33.6001 34.3293 33.1081 34.5453 32.5508 34.5453C31.9939 34.5453 31.5021 34.3293 31.0755 33.8973L22.9521 25.9073C22.7086 25.6744 22.537 25.4207 22.4375 25.146C22.3379 24.8713 22.2881 24.5778 22.2881 24.2653V12.9613C22.2881 12.3604 22.4872 11.8636 22.8855 11.4707C23.2832 11.0778 23.7821 10.8813 24.3821 10.8813C24.9826 10.8813 25.4797 11.0778 25.8735 11.4707C26.2668 11.8636 26.4635 12.3604 26.4635 12.9613V23.4853Z" fill="#E74C3C"/>
</svg>
