<svg width="100" height="100" viewBox="0 0 100 100" fill="none" xmlns="http://www.w3.org/2000/svg">
<rect x="0.5" y="0.5" width="99" height="99" rx="31.5" fill="black" fill-opacity="0.01"/>
<rect x="0.5" y="0.5" width="99" height="99" rx="31.5" stroke="url(#paint0_linear_432_252)"/>
<path d="M19.0833 80C18.4722 80 17.9167 79.8478 17.4167 79.5433C16.9167 79.2389 16.5278 78.8356 16.25 78.3333C15.9722 77.8311 15.82 77.2889 15.7933 76.7067C15.7667 76.1244 15.9189 75.5556 16.25 75L47.0833 21.6667C47.4167 21.1111 47.8478 20.6944 48.3767 20.4167C48.9055 20.1389 49.4467 20 50 20C50.5533 20 51.0955 20.1389 51.6267 20.4167C52.1578 20.6944 52.5878 21.1111 52.9167 21.6667L83.75 75C84.0833 75.5556 84.2367 76.1256 84.21 76.71C84.1833 77.2944 84.03 77.8356 83.75 78.3333C83.47 78.8311 83.0811 79.2344 82.5833 79.5433C82.0855 79.8522 81.53 80.0044 80.9167 80H19.0833ZM24.8333 73.3333H75.1667L50 30L24.8333 73.3333ZM50 70C50.9444 70 51.7367 69.68 52.3767 69.04C53.0167 68.4 53.3355 67.6089 53.3333 66.6667C53.3311 65.7244 53.0111 64.9333 52.3733 64.2933C51.7355 63.6533 50.9444 63.3333 50 63.3333C49.0555 63.3333 48.2644 63.6533 47.6267 64.2933C46.9889 64.9333 46.6689 65.7244 46.6667 66.6667C46.6644 67.6089 46.9844 68.4011 47.6267 69.0433C48.2689 69.6856 49.06 70.0044 50 70ZM50 60C50.9444 60 51.7367 59.68 52.3767 59.04C53.0167 58.4 53.3355 57.6089 53.3333 56.6667V46.6667C53.3333 45.7222 53.0133 44.9311 52.3733 44.2933C51.7333 43.6556 50.9422 43.3356 50 43.3333C49.0578 43.3311 48.2667 43.6511 47.6267 44.2933C46.9867 44.9356 46.6667 45.7267 46.6667 46.6667V56.6667C46.6667 57.6111 46.9867 58.4033 47.6267 59.0433C48.2667 59.6833 49.0578 60.0022 50 60Z" fill="#333333"/>
<defs>
<linearGradient id="paint0_linear_432_252" x1="100" y1="50" x2="0" y2="50" gradientUnits="userSpaceOnUse">
<stop stop-color="#F1C40F"/>
<stop offset="0.3" stop-color="#F39C12"/>
<stop offset="1" stop-color="#EF485B"/>
</linearGradient>
</defs>
</svg>
