<svg width="100" height="100" viewBox="0 0 100 100" fill="none" xmlns="http://www.w3.org/2000/svg">
<rect x="0.5" y="0.5" width="99" height="99" rx="31.5" fill="black" fill-opacity="0.01"/>
<rect x="0.5" y="0.5" width="99" height="99" rx="31.5" stroke="url(#paint0_linear_432_260)"/>
<path d="M60 38.3333C61.4783 39.8116 62.5858 41.655 63.3225 43.8633C64.0591 46.0716 64.2305 48.2561 63.8366 50.4166C63.8366 51.21 63.5775 51.8647 63.0591 52.3808C62.5403 52.8975 61.885 53.1558 61.0933 53.1558C60.3016 53.1558 59.6478 52.8975 59.1316 52.3808C58.6161 51.8647 58.3583 51.21 58.3583 50.4166C58.93 48.7272 59.0094 47.125 58.5966 45.61C58.1844 44.0944 57.4336 42.8133 56.3441 41.7667C55.2969 40.6772 54.0019 39.94 52.4591 39.555C50.9164 39.1705 49.328 39.2705 47.6941 39.855C46.9219 39.855 46.2789 39.598 45.765 39.0842C45.2511 38.5697 44.9941 37.9258 44.9941 37.1525C44.9941 36.3792 45.2511 35.7367 45.765 35.225C46.2789 34.7128 46.9219 34.4566 47.6941 34.4566C49.8814 34.0494 52.0994 34.2141 54.3483 34.9508C56.5978 35.6875 58.4816 36.815 60 38.3333ZM50.8333 28.3333C49.135 28.3333 47.4403 28.4133 45.7491 28.5733C44.0575 28.7333 42.4003 29.0711 40.7775 29.5866C40.0247 29.7955 39.2886 29.7447 38.5691 29.4342C37.8491 29.123 37.3436 28.6219 37.0525 27.9308C36.748 27.2536 36.7547 26.5755 37.0725 25.8967C37.3903 25.2178 37.8878 24.7672 38.565 24.545C40.4566 23.9472 42.3947 23.5194 44.3791 23.2617C46.3636 23.0039 48.3761 22.875 50.4166 22.875C58.0905 22.875 65.0866 24.9955 71.405 29.2367C77.7233 33.4772 82.5689 39.0553 85.9416 45.9708C86.1216 46.3419 86.2705 46.7247 86.3883 47.1191C86.5061 47.5141 86.565 47.9192 86.565 48.3342C86.565 48.7492 86.5233 49.1572 86.44 49.5583C86.3566 49.9589 86.225 50.3392 86.045 50.6992C84.7805 53.368 83.2794 55.8355 81.5416 58.1017C79.8039 60.3672 77.8014 62.4589 75.5341 64.3766C74.9947 64.8878 74.3894 65.0772 73.7183 64.945C73.0472 64.8128 72.4908 64.4766 72.0491 63.9366C71.6069 63.3966 71.4241 62.788 71.5008 62.1108C71.5775 61.433 71.8858 60.8453 72.4258 60.3475C74.3591 58.7075 76.105 56.9003 77.6633 54.9258C79.2211 52.9514 80.4655 50.7539 81.3966 48.3333C78.6461 42.2911 74.5289 37.4472 69.045 33.8017C63.5616 30.1561 57.4911 28.3333 50.8333 28.3333ZM49.9983 73.7916C42.3772 73.7916 35.4364 71.6705 29.1758 67.4283C22.9147 63.1861 17.9441 57.6986 14.2641 50.9658C14.0286 50.5236 13.8628 50.0986 13.7666 49.6908C13.67 49.2836 13.6216 48.8314 13.6216 48.3342C13.6216 47.8375 13.6839 47.3783 13.8083 46.9566C13.9322 46.535 14.0841 46.1097 14.2641 45.6808C15.5841 43.0541 17.11 40.5797 18.8416 38.2575C20.5733 35.9358 22.5222 33.8036 24.6883 31.8608L16.0975 23.27C15.5714 22.7505 15.3189 22.1458 15.34 21.4558C15.3611 20.7653 15.6069 20.1569 16.0775 19.6308C16.6041 19.1042 17.228 18.8408 17.9491 18.8408C18.6703 18.8408 19.2941 19.1042 19.8208 19.6308L79.5666 79.3766C80.0378 79.8478 80.2666 80.4161 80.2533 81.0816C80.24 81.7472 80.0083 82.3364 79.5583 82.8491C79.0933 83.4314 78.5003 83.7225 77.7791 83.7225C77.058 83.7225 76.4341 83.4594 75.9075 82.9333L64.1 71.355C61.8089 72.215 59.4853 72.8361 57.1291 73.2183C54.773 73.6005 52.3961 73.7916 49.9983 73.7916ZM28.4383 35.6591C26.2172 37.2703 24.2622 39.1458 22.5733 41.2858C20.8844 43.4264 19.54 45.7755 18.54 48.3333C21.4305 54.5555 25.7739 59.4444 31.57 63C37.3655 66.5555 43.7311 68.3333 50.6666 68.3333C52.2378 68.3333 53.8025 68.2983 55.3608 68.2283C56.9186 68.1583 58.4064 67.7622 59.8241 67.04L54.4908 61.7067C53.753 62.0267 53.0047 62.2389 52.2458 62.3433C51.4864 62.4478 50.7378 62.5 50 62.5C46.0555 62.5 42.7083 61.125 39.9583 58.375C37.2083 55.625 35.8333 52.2778 35.8333 48.3333C35.8333 47.5955 35.8961 46.8469 36.0216 46.0875C36.1472 45.3286 36.3355 44.5803 36.5866 43.8425L28.4383 35.6591Z" fill="#333333"/>
<defs>
<linearGradient id="paint0_linear_432_260" x1="100" y1="50" x2="0" y2="50" gradientUnits="userSpaceOnUse">
<stop stop-color="#F1C40F"/>
<stop offset="0.3" stop-color="#F39C12"/>
<stop offset="1" stop-color="#EF485B"/>
</linearGradient>
</defs>
</svg>
