<svg width="100" height="100" viewBox="0 0 100 100" fill="none" xmlns="http://www.w3.org/2000/svg">
<rect x="0.5" y="0.5" width="99" height="99" rx="31.5" fill="black" fill-opacity="0.01"/>
<rect x="0.5" y="0.5" width="99" height="99" rx="31.5" stroke="url(#paint0_linear_432_244)"/>
<path d="M18.3858 77.4242C16.8247 77.4242 15.4883 76.8681 14.3767 75.7558C13.2644 74.6436 12.7083 73.3072 12.7083 71.7467V69.0525C12.7083 67.0108 13.2328 65.1633 14.2817 63.51C15.3311 61.8561 16.7886 60.6131 18.6542 59.7808C22.7364 58.0031 26.4222 56.7186 29.7117 55.9275C33.0011 55.1364 36.3883 54.7408 39.8733 54.7408C41.7811 54.7408 43.6106 54.8486 45.3617 55.0642C47.1122 55.2797 48.9331 55.652 50.8242 56.1808C51.5153 56.3475 51.985 56.7453 52.2333 57.3742C52.4822 58.0025 52.4889 58.6622 52.2533 59.3533C52.0178 60.0439 51.5686 60.5925 50.9058 60.9992C50.2425 61.4053 49.3592 61.5039 48.2558 61.295C46.8642 60.9883 45.4967 60.7689 44.1533 60.6367C42.81 60.5045 41.3833 60.4383 39.8733 60.4383C36.72 60.4383 33.7783 60.7372 31.0483 61.335C28.3178 61.9328 24.9858 63.1008 21.0525 64.8392C20.2881 65.1664 19.6525 65.7433 19.1458 66.57C18.6392 67.3972 18.3858 68.2514 18.3858 69.1325V71.7467H48.435C49.3322 71.7467 50.0264 72.0397 50.5175 72.6258C51.0081 73.2125 51.2533 73.8575 51.2533 74.5608C51.2533 75.2814 51.0186 75.9386 50.5492 76.5325C50.0792 77.127 49.3744 77.4242 48.435 77.4242H18.3858ZM39.8783 49.6575C36.1283 49.6575 33.0669 48.4708 30.6942 46.0975C28.3208 43.7247 27.1342 40.6617 27.1342 36.9083C27.1342 33.1556 28.3211 30.0925 30.695 27.7192C33.0683 25.3458 36.1281 24.1592 39.8742 24.1592C43.6197 24.1592 46.6825 25.3461 49.0625 27.72C51.4425 30.0933 52.6325 33.1528 52.6325 36.8984C52.6325 40.6583 51.4442 43.7247 49.0675 46.0975C46.6908 48.4708 43.6278 49.6575 39.8783 49.6575ZM70.6108 36.8984C70.6108 40.645 69.4211 43.7081 67.0417 46.0875C64.6628 48.4675 61.5978 49.6575 57.8467 49.6575C57.2217 49.6575 56.5417 49.6125 55.8067 49.5225C55.0722 49.4325 54.3794 49.2697 53.7283 49.0342C55.0883 47.6186 56.1156 45.8814 56.81 43.8225C57.5044 41.7636 57.8517 39.46 57.8517 36.9117C57.8517 34.3633 57.5033 32.1108 56.8067 30.1542C56.11 28.1981 55.0839 26.4067 53.7283 24.78C54.3528 24.6017 55.0383 24.4536 55.785 24.3359C56.5311 24.2181 57.2183 24.1592 57.8467 24.1592C61.5928 24.1592 64.6567 25.3495 67.0383 27.73C69.42 30.11 70.6108 33.1661 70.6108 36.8984ZM39.87 44.1992C41.9811 44.1992 43.7261 43.5117 45.105 42.1367C46.4844 40.7611 47.1742 39.0192 47.1742 36.9108C47.1742 34.8025 46.4864 33.06 45.1108 31.6833C43.7358 30.3061 41.9942 29.6175 39.8858 29.6175C37.7769 29.6175 36.0342 30.3042 34.6575 31.6775C33.2808 33.0508 32.5925 34.79 32.5925 36.895C32.5925 39.0061 33.2789 40.7514 34.6517 42.1308C36.025 43.5097 37.7644 44.1992 39.87 44.1992ZM67.6417 74.8209C69.6717 74.8209 71.3789 74.1186 72.7633 72.7142C74.1483 71.3092 74.8342 69.6242 74.8208 67.6592C74.8075 65.647 74.1089 63.9506 72.725 62.57C71.3411 61.1889 69.6478 60.4983 67.645 60.4983C65.6367 60.4983 63.9467 61.1828 62.575 62.5517C61.2039 63.9211 60.5183 65.6178 60.5183 67.6417C60.5183 69.6656 61.1981 71.3681 62.5575 72.7492C63.9169 74.1303 65.6117 74.8209 67.6417 74.8209ZM67.6592 80.4983C64.1286 80.4983 61.1064 79.2411 58.5925 76.7267C56.0781 74.2122 54.8208 71.1897 54.8208 67.6592C54.8208 64.0664 56.0781 61.0283 58.5925 58.545C61.1064 56.0622 64.1286 54.8208 67.6592 54.8208C71.2525 54.8208 74.2939 56.0622 76.7833 58.545C79.2733 61.0283 80.5183 64.0664 80.5183 67.6592C80.5183 68.9286 80.3478 70.1289 80.0067 71.26C79.665 72.3911 79.1742 73.45 78.5342 74.4367L85.1483 81.0508C85.6595 81.5614 85.9183 82.1689 85.925 82.8733C85.9317 83.5772 85.6761 84.1914 85.1583 84.7158C84.6544 85.2264 84.0503 85.4817 83.3458 85.4817C82.6419 85.4817 82.0278 85.2264 81.5033 84.7158L74.9092 78.225C73.8586 78.9761 72.735 79.5428 71.5383 79.925C70.3411 80.3072 69.0481 80.4983 67.6592 80.4983Z" fill="#333333"/>
<defs>
<linearGradient id="paint0_linear_432_244" x1="100" y1="50" x2="0" y2="50" gradientUnits="userSpaceOnUse">
<stop stop-color="#F1C40F"/>
<stop offset="0.3" stop-color="#F39C12"/>
<stop offset="1" stop-color="#EF485B"/>
</linearGradient>
</defs>
</svg>
