<svg width="44" height="54" viewBox="0 0 44 54" fill="none" xmlns="http://www.w3.org/2000/svg">
<path d="M18.9987 29.8713L13.78 24.652C13.3693 24.2418 12.8618 24.0367 12.2573 24.0367C11.6529 24.0367 11.14 24.2467 10.7187 24.6667C10.3084 25.0809 10.1033 25.5831 10.1033 26.1733C10.1033 26.764 10.3084 27.2773 10.7187 27.7133L17.1913 34.252C17.6522 34.716 18.19 34.948 18.8047 34.948C19.4189 34.948 19.9527 34.716 20.406 34.252L32.6627 21.996C33.0836 21.576 33.294 21.0771 33.294 20.4993C33.294 19.922 33.0947 19.4449 32.696 19.068C32.2969 18.6916 31.7967 18.5144 31.1953 18.5367C30.5944 18.5589 30.1076 18.7582 29.7347 19.1347L18.9987 29.8713ZM21.732 53.648C21.4636 53.648 21.2122 53.6231 20.978 53.5733C20.7433 53.5236 20.514 53.4489 20.29 53.3493C14.0589 51.2604 9.11955 47.4678 5.472 41.9713C1.824 36.4744 0 30.4811 0 23.9913V11.0433C0 10.0709 0.270889 9.19178 0.812667 8.406C1.35444 7.62022 2.06711 7.05733 2.95067 6.71733L20.1407 0.298665C20.6829 0.0995543 21.2133 0 21.732 0C22.2507 0 22.7811 0.0995543 23.3233 0.298665L40.5133 6.71733C41.3969 7.05733 42.1122 7.62022 42.6593 8.406C43.2064 9.19178 43.48 10.0709 43.48 11.0433V23.9913C43.48 30.4811 41.6533 36.4744 38 41.9713C34.3471 47.4678 29.4051 51.2604 23.174 53.3493C22.95 53.4489 22.7207 53.5236 22.486 53.5733C22.2518 53.6231 22.0004 53.648 21.732 53.648ZM21.732 49.2047C26.7898 47.4624 30.9193 44.2709 34.1207 39.63C37.3216 34.9887 38.922 29.7798 38.922 24.0033V11.0433L21.732 4.558L4.542 11.0513V23.996C4.542 29.7773 6.14244 34.9887 9.34333 39.63C12.5447 44.2709 16.6742 47.4624 21.732 49.2047Z" fill="#27AE60"/>
</svg>
