<svg width="129" height="24" viewBox="0 0 129 24" fill="none" xmlns="http://www.w3.org/2000/svg">
<path fill-rule="evenodd" clip-rule="evenodd" d="M7.22827 3.14803C5.51382 3.27568 3.84362 3.82872 2.80277 4.61344C1.49966 5.59586 0.710149 6.88635 0.235024 8.81084L0.0499077 9.56051L0.0249539 16.4324L0 23.3043H3.39638H6.79283L6.81399 17.6819L6.83516 12.0594L7.00269 11.5877C7.25194 10.8857 7.60215 10.4663 8.18875 10.1674L8.67903 9.91749L10.4562 9.89414L12.2334 9.8708V16.5876V23.3043H15.6297H19.026L19.0285 17.9674C19.0311 12.2974 19.0503 11.9253 19.375 11.2361C19.6208 10.7146 19.9237 10.4061 20.4388 10.1527L20.9172 9.91749L22.6886 9.89414L24.4601 9.8708V16.5876V23.3043H27.8564H31.2527V19.9668V16.6293L27.8745 13.2556L24.4964 9.88179H27.8745H31.2527V6.49046V3.09912H27.8564H24.4601V6.47161V9.84409L21.0798 6.47161L17.6997 3.09912L12.6248 3.11161C9.8337 3.11847 7.40524 3.13482 7.22827 3.14803Z" fill="#EF485B"/>
<path d="M118.162 23.8299C116.494 23.8299 115.215 23.3863 114.328 22.499C113.441 21.5906 112.997 20.4181 112.997 18.9816C112.997 17.7985 113.282 16.8267 113.853 16.0662C114.444 15.3057 115.268 14.7353 116.325 14.355C117.402 13.9747 118.669 13.7846 120.127 13.7846H122.757V12.7389C122.757 11.9361 122.546 11.3023 122.124 10.8375C121.701 10.3516 120.993 10.1087 120 10.1087C119.071 10.1087 118.331 10.3094 117.782 10.7108C117.233 11.1122 116.779 11.5664 116.42 12.0734L113.631 9.60168C114.307 8.60877 115.163 7.83767 116.198 7.2884C117.233 6.718 118.617 6.4328 120.349 6.4328C122.694 6.4328 124.458 6.96095 125.641 8.01724C126.845 9.05241 127.447 10.5523 127.447 12.517V19.8055H129V23.4497H126.402C125.62 23.4497 124.954 23.2278 124.405 22.7842C123.877 22.3194 123.518 21.7068 123.328 20.9463L123.233 20.5343H123.043C122.789 21.6117 122.229 22.4356 121.363 23.006C120.497 23.5553 119.43 23.8299 118.162 23.8299ZM119.905 20.566C120.433 20.566 120.909 20.492 121.331 20.3442C121.754 20.1963 122.092 19.9639 122.345 19.647C122.62 19.3301 122.757 18.9182 122.757 18.4112V16.4465H120.476C119.567 16.4465 118.881 16.6049 118.416 16.9218C117.951 17.2387 117.719 17.7034 117.719 18.3161V18.7914C117.719 19.3829 117.909 19.8266 118.289 20.1223C118.669 20.4181 119.208 20.566 119.905 20.566Z" fill="#333333"/>
<path d="M102.995 23.4497V6.81308H107.685V10.4256H107.844C107.971 9.81295 108.203 9.23199 108.541 8.68272C108.879 8.13345 109.333 7.6898 109.904 7.35179C110.495 6.99265 111.224 6.81308 112.09 6.81308H112.914V11.1861H111.742C110.833 11.1861 110.073 11.2706 109.46 11.4396C108.868 11.5875 108.425 11.841 108.129 12.2002C107.833 12.5593 107.685 13.0663 107.685 13.7212V23.4497H102.995Z" fill="#333333"/>
<path d="M90.5609 23.8299C89.1665 23.8299 87.9941 23.5025 87.0434 22.8476C86.0927 22.1716 85.3745 21.1892 84.8886 19.9005C84.4027 18.5907 84.1597 16.9957 84.1597 15.1155C84.1597 13.2353 84.4027 11.6509 84.8886 10.3622C85.3745 9.07355 86.0927 8.10176 87.0434 7.44686C87.9941 6.77083 89.1665 6.43282 90.5609 6.43282C91.6383 6.43282 92.5889 6.72858 93.4128 7.3201C94.2579 7.91163 94.7966 8.67216 95.029 9.60169H95.1874V0H99.8774V23.4497H95.1874V20.6611H95.029C94.7966 21.5695 94.2579 22.33 93.4128 22.9427C92.5889 23.5342 91.6383 23.8299 90.5609 23.8299ZM92.1136 20.0273C92.7051 20.0273 93.2333 19.9322 93.698 19.7421C94.1628 19.552 94.522 19.2773 94.7755 18.9182C95.0501 18.5379 95.1874 18.0943 95.1874 17.5873V12.6755C95.1874 12.1685 95.0501 11.7354 94.7755 11.3763C94.522 10.996 94.1628 10.7108 93.698 10.5207C93.2333 10.3305 92.7051 10.2355 92.1136 10.2355C91.2263 10.2355 90.4869 10.5524 89.8954 11.1861C89.325 11.7988 89.0398 12.6333 89.0398 13.6895V16.5732C89.0398 17.6084 89.325 18.4429 89.8954 19.0766C90.4869 19.7104 91.2263 20.0273 92.1136 20.0273Z" fill="#333333"/>
<path d="M67.374 23.4497V6.81307H72.064V9.63337H72.2541C72.5499 8.76721 73.0674 8.01724 73.8069 7.38347C74.5463 6.74969 75.5709 6.4328 76.8807 6.4328C78.5707 6.4328 79.8594 7.01376 80.7467 8.17569C81.634 9.31648 82.0776 10.9326 82.0776 13.0241V23.4497H77.3877V13.4043C77.3877 12.348 77.2187 11.5558 76.8807 11.0277C76.5427 10.4995 75.9406 10.2355 75.0744 10.2355C74.5674 10.2355 74.0815 10.3305 73.6167 10.5207C73.1731 10.6897 72.8034 10.9537 72.5076 11.3129C72.2119 11.672 72.064 12.1262 72.064 12.6755V23.4497H67.374Z" fill="#333333"/>
<path d="M54.6562 23.8299C52.9873 23.8299 51.7092 23.3863 50.8219 22.499C49.9346 21.5906 49.491 20.4181 49.491 18.9816C49.491 17.7985 49.7762 16.8267 50.3466 16.0662C50.9381 15.3057 51.762 14.7353 52.8183 14.355C53.8957 13.9747 55.1633 13.7846 56.6209 13.7846H59.2511V12.7389C59.2511 11.9361 59.0399 11.3023 58.6173 10.8375C58.1948 10.3516 57.4871 10.1087 56.4942 10.1087C55.5647 10.1087 54.8252 10.3094 54.276 10.7108C53.7267 11.1122 53.2725 11.5664 52.9134 12.0734L50.1247 9.60168C50.8008 8.60877 51.6564 7.83767 52.6915 7.2884C53.7267 6.718 55.1104 6.4328 56.8428 6.4328C59.1877 6.4328 60.9517 6.96095 62.1348 8.01724C63.339 9.05241 63.9411 10.5523 63.9411 12.517V19.8055H65.4938V23.4497H62.8953C62.1137 23.4497 61.4482 23.2278 60.8989 22.7842C60.3708 22.3194 60.0116 21.7068 59.8215 20.9463L59.7264 20.5343H59.5363C59.2828 21.6117 58.723 22.4356 57.8568 23.006C56.9906 23.5553 55.9238 23.8299 54.6562 23.8299ZM56.3991 20.566C56.9273 20.566 57.4026 20.492 57.8251 20.3442C58.2476 20.1963 58.5856 19.9639 58.8392 19.647C59.1138 19.3301 59.2511 18.9182 59.2511 18.4112V16.4465H56.9695C56.0611 16.4465 55.3745 16.6049 54.9098 16.9218C54.445 17.2387 54.2126 17.7034 54.2126 18.3161V18.7914C54.2126 19.3829 54.4027 19.8266 54.783 20.1223C55.1633 20.4181 55.702 20.566 56.3991 20.566Z" fill="#333333"/>
<path d="M33.5784 23.4497V0H38.2684V13.848H38.4585L40.5183 10.7742L43.8456 6.81308H49.0426L43.497 13.1825L49.6763 23.4497H44.0991L40.3598 16.4148L38.2684 18.7597V23.4497H33.5784Z" fill="#333333"/>
</svg>
