<svg width="34" height="28" viewBox="0 0 34 28" fill="none" xmlns="http://www.w3.org/2000/svg">
<path d="M7.20542 27.175C6.44819 27.175 5.7875 26.8951 5.22333 26.3354C4.65889 25.776 4.37667 25.1129 4.37667 24.3462V7.13792L0.34125 2.33083C0.214028 2.1775 0.125278 2.02875 0.0750001 1.88458C0.0250001 1.74014 0 1.59014 0 1.43458C0 1.07903 0.131111 0.751109 0.393333 0.450831C0.655834 0.150276 0.997778 0 1.41917 0H31.0633C31.8231 0 32.4861 0.283192 33.0525 0.849581C33.6189 1.41597 33.9021 2.07903 33.9021 2.83875V24.3462C33.9021 25.1129 33.6189 25.776 33.0525 26.3354C32.4861 26.8951 31.8231 27.175 31.0633 27.175H7.20542ZM4.75542 2.83875L7.20542 5.74083V24.3462H31.0633V2.83875H4.75542ZM18.1292 17.9733H25.545C25.9 17.9733 26.1975 17.8524 26.4375 17.6104C26.6778 17.3687 26.7979 17.0692 26.7979 16.7117C26.7979 16.3569 26.6776 16.0615 26.4371 15.8254C26.1963 15.5893 25.8981 15.4712 25.5425 15.4712H14.9583C14.4361 15.4712 14.0758 15.7132 13.8775 16.1971C13.6789 16.681 13.764 17.1075 14.1329 17.4767L18.1417 21.4329C18.39 21.6596 18.6792 21.7782 19.0092 21.7887C19.3392 21.7993 19.6325 21.6812 19.8892 21.4346C20.1392 21.1799 20.2572 20.8804 20.2433 20.5362C20.2294 20.1921 20.0975 19.896 19.8475 19.6479L18.1292 17.9733ZM20.7642 9.20375H13.3383C12.9825 9.20375 12.6849 9.32597 12.4454 9.57041C12.2057 9.81458 12.0858 10.1132 12.0858 10.4662C12.0858 10.819 12.2051 11.1151 12.4438 11.3546C12.6826 11.594 12.9785 11.7137 13.3313 11.7137H23.8838C24.4046 11.7137 24.7663 11.4718 24.9688 10.9879C25.1713 10.504 25.0881 10.0742 24.7192 9.69833L20.7642 5.75541C20.5336 5.52653 20.2464 5.41208 19.9025 5.41208C19.5586 5.41208 19.2625 5.5318 19.0142 5.77125C18.7575 6.01236 18.6361 6.30528 18.65 6.65C18.6639 6.99472 18.7992 7.29041 19.0558 7.53708L20.7642 9.20375Z" fill="#E64A22"/>
</svg>
