<svg width="400" height="400" viewBox="0 0 400 400" fill="none" xmlns="http://www.w3.org/2000/svg">
<g filter="url(#filter0_f_227_630)">
<path d="M102.292 335.825C94.7194 335.825 88.1125 333.026 82.4708 327.429C76.8264 321.835 74.0042 315.204 74.0042 307.537V135.454L33.65 87.3833C32.3778 85.85 31.4903 84.3625 30.9875 82.9208C30.4875 81.4764 30.2375 79.9764 30.2375 78.4208C30.2375 74.8653 31.5486 71.5861 34.1708 68.5833C36.7958 65.5778 40.2153 64.075 44.4292 64.075H340.871C348.468 64.075 355.099 66.9069 360.762 72.5708C366.426 78.2347 369.258 84.8653 369.258 92.4625V307.537C369.258 315.204 366.426 321.835 360.762 327.429C355.099 333.026 348.468 335.825 340.871 335.825H102.292ZM77.7917 92.4625L102.292 121.483V307.537H340.871V92.4625H77.7917ZM211.529 243.808H285.687C289.237 243.808 292.212 242.599 294.612 240.179C297.015 237.762 298.217 234.767 298.217 231.192C298.217 227.644 297.014 224.69 294.608 222.329C292.2 219.968 289.218 218.787 285.662 218.787H179.821C174.599 218.787 170.996 221.207 169.012 226.046C167.026 230.885 167.878 235.15 171.567 238.842L211.654 278.404C214.137 280.671 217.029 281.857 220.329 281.962C223.629 282.068 226.562 280.887 229.129 278.421C231.629 275.874 232.81 272.879 232.671 269.437C232.532 265.996 231.212 263.035 228.712 260.554L211.529 243.808ZM237.879 156.112H163.621C160.062 156.112 157.086 157.335 154.692 159.779C152.294 162.221 151.096 165.207 151.096 168.737C151.096 172.265 152.289 175.226 154.675 177.621C157.064 180.015 160.022 181.212 163.55 181.212H269.075C274.283 181.212 277.9 178.793 279.925 173.954C281.95 169.115 281.118 164.817 277.429 161.058L237.879 121.629C235.574 119.34 232.701 118.196 229.262 118.196C225.824 118.196 222.862 119.393 220.379 121.787C217.812 124.199 216.599 127.128 216.737 130.575C216.876 134.022 218.229 136.979 220.796 139.446L237.879 156.112Z" fill="#FF98AB"/>
</g>
<defs>
<filter id="filter0_f_227_630" x="-30" y="-30" width="460" height="460" filterUnits="userSpaceOnUse" color-interpolation-filters="sRGB">
<feFlood flood-opacity="0" result="BackgroundImageFix"/>
<feBlend mode="normal" in="SourceGraphic" in2="BackgroundImageFix" result="shape"/>
<feGaussianBlur stdDeviation="15" result="effect1_foregroundBlur_227_630"/>
</filter>
</defs>
</svg>
