<svg width="1007" height="958" viewBox="0 0 1007 958" fill="none" xmlns="http://www.w3.org/2000/svg">
<g clip-path="url(#clip0_284_233)">
<path d="M395.066 602.1C395.066 602.1 370.258 475.848 287.622 418.174C204.987 360.501 148.762 361.114 99.2314 331.196C99.2314 331.196 95.0824 380.445 128.699 455.054C162.316 529.664 202.808 590.141 278.133 622.121C353.459 654.101 395.066 602.1 395.066 602.1Z" fill="#FF6129"/>
<mask id="mask0_284_233" style="mask-type:luminance" maskUnits="userSpaceOnUse" x="0" y="0" width="1025" height="1025">
<path d="M1025 0H0V1025H1025V0Z" fill="white"/>
</mask>
<g mask="url(#mask0_284_233)">
<path d="M406.892 630.418C406.892 630.418 307.329 589.19 226.12 597.852C152.56 605.698 141.084 616.579 104.655 612.886C114.662 636.051 156.585 712.25 239.323 738.117C322.061 763.984 401.306 747.758 431.113 723.507C460.92 699.256 425.884 639.275 406.892 630.418Z" fill="#0E173A"/>
<path d="M136.102 627.262C136.102 627.262 278.301 684.904 404.433 669.156" stroke="white" stroke-width="0.572133" stroke-miterlimit="10"/>
<path d="M170.818 675.532L220.766 653.955" stroke="white" stroke-width="0.572133" stroke-miterlimit="10"/>
<path d="M251.653 626.305C251.689 627.622 277.749 664.705 277.749 664.705" stroke="white" stroke-width="0.572133" stroke-miterlimit="10"/>
<path d="M185.341 412.228C185.341 412.228 322.983 572.394 408.115 644.098" stroke="white" stroke-width="0.572133" stroke-miterlimit="10"/>
<path d="M203.793 492.861L261.267 499.262" stroke="white" stroke-width="0.572133" stroke-miterlimit="10"/>
<path d="M317.25 476.392L302.725 540.984" stroke="white" stroke-width="0.572133" stroke-miterlimit="10"/>
<path d="M287.004 603.245L358.419 598.952" stroke="white" stroke-width="0.572133" stroke-miterlimit="10"/>
<path d="M582.394 636.125C582.394 636.125 613.378 558.791 662.039 518.558C706.117 482.115 718.334 481.647 735.971 459.505C743.376 477.554 762.869 541.903 732.478 601.634C702.088 661.364 650.305 696.425 620.791 699.808C591.277 703.191 577.032 651.413 582.394 636.125Z" fill="#0E173A"/>
<path d="M726.934 484.663C726.934 484.663 681.993 594.443 605.145 655.693" stroke="white" stroke-width="0.4424" stroke-miterlimit="10"/>
<path d="M734.876 529.939L695.96 545.905" stroke="white" stroke-width="0.4424" stroke-miterlimit="10"/>
<path d="M663.983 548.049C664.692 548.781 671.12 583.227 671.12 583.227" stroke="white" stroke-width="0.4424" stroke-miterlimit="10"/>
<path d="M624.653 683.146C624.653 683.146 677.254 593.451 755.677 571.496C834.101 549.54 876.829 565.005 922.594 555.393C922.594 555.393 912.622 594.069 867.076 642.019C821.53 689.97 774.509 725.304 708.515 729.609C642.522 733.914 624.653 683.146 624.653 683.146Z" fill="#FF6129"/>
<path d="M898.838 570.957C898.838 570.957 751.113 656.428 667.043 688.421" stroke="white" stroke-width="0.462467" stroke-miterlimit="10"/>
<path d="M863.254 627.547L817.701 617.101" stroke="white" stroke-width="0.462467" stroke-miterlimit="10"/>
<path d="M781.094 584.721L774.945 637.87" stroke="white" stroke-width="0.462467" stroke-miterlimit="10"/>
<path d="M770.332 689.561L716.997 667.237" stroke="white" stroke-width="0.462467" stroke-miterlimit="10"/>
<mask id="mask1_284_233" style="mask-type:luminance" maskUnits="userSpaceOnUse" x="360" y="684" width="355" height="206">
<path d="M695.712 761.725C720.132 775.825 720.261 798.679 695.999 812.779L582.115 878.96C557.854 893.06 518.397 893.06 493.977 878.961L379.348 812.78C354.928 798.681 354.799 775.826 379.06 761.727L492.945 695.544C517.206 681.446 556.663 681.445 581.083 695.544L695.712 761.725Z" fill="url(#paint0_linear_284_233)"/>
</mask>
<g mask="url(#mask1_284_233)">
<path d="M695.712 761.725C720.132 775.825 720.261 798.679 695.999 812.779L582.115 878.96C557.854 893.06 518.397 893.06 493.977 878.961L379.348 812.78C354.928 798.681 354.799 775.826 379.06 761.727L492.945 695.544C517.206 681.446 556.663 681.445 581.083 695.544L695.712 761.725Z" fill="url(#paint1_linear_284_233)"/>
</g>
<path d="M695.712 731.208C720.132 745.307 720.261 768.161 695.999 782.261L582.115 848.442C557.854 862.542 518.397 862.542 493.977 848.443L379.348 782.262C354.928 768.163 354.799 745.309 379.06 731.209L492.944 665.027C517.205 650.928 556.663 650.928 581.083 665.026L695.712 731.208Z" stroke="#0E173A" stroke-width="0.432133" stroke-miterlimit="10"/>
<path d="M736.331 690.309L593.464 773.334C563.027 791.022 513.529 791.022 482.894 773.335L339.091 690.311C323.675 681.41 315.976 669.729 316.009 658.065L315.963 674.588C315.929 686.252 323.628 697.934 339.044 706.834L482.847 789.859C513.482 807.545 562.979 807.545 593.416 789.859L736.284 706.833C751.404 698.045 758.974 686.548 759.006 675.033L759.053 658.51C759.02 670.025 751.452 681.522 736.331 690.309Z" fill="#AAD2F4"/>
<mask id="mask2_284_233" style="mask-type:luminance" maskUnits="userSpaceOnUse" x="316" y="529" width="444" height="258">
<path d="M735.97 626.263C766.606 643.951 766.767 672.622 736.33 690.31L593.463 773.335C563.026 791.023 513.528 791.023 482.893 773.336L339.09 690.312C308.455 672.624 308.294 643.953 338.73 626.265L481.598 543.239C512.034 525.552 561.533 525.552 592.168 543.239L735.97 626.263Z" fill="url(#paint2_linear_284_233)"/>
</mask>
<g mask="url(#mask2_284_233)">
<path d="M735.97 626.263C766.606 643.951 766.767 672.622 736.33 690.31L593.463 773.335C563.026 791.023 513.528 791.023 482.893 773.336L339.09 690.312C308.455 672.624 308.294 643.953 338.73 626.265L481.598 543.239C512.034 525.552 561.533 525.552 592.168 543.239L735.97 626.263Z" fill="url(#paint3_linear_284_233)"/>
</g>
<g opacity="0.01">
<path d="M1016.82 528.735L857.854 436.956C850.979 432.986 844.753 432.616 840.258 435.228L827.097 442.877C831.593 440.264 837.82 440.634 844.695 444.604L1003.66 536.383C1017.3 544.258 1028.35 563.372 1028.31 579.071L1028.15 633.868C1028.13 641.663 1025.37 647.144 1020.94 649.723L1034.1 642.075C1038.53 639.496 1041.29 634.015 1041.31 626.22L1041.47 571.423C1041.51 555.724 1030.46 536.609 1016.82 528.735Z" fill="#C9DAF2"/>
<path d="M1003.66 536.383C1017.3 544.257 1028.35 563.371 1028.31 579.071L1028.15 633.868C1028.11 649.567 1016.98 655.879 1003.34 648.004L844.377 556.224C830.715 548.336 819.688 529.236 819.732 513.537L819.887 458.74C819.933 443.041 831.032 436.716 844.694 444.604L1003.66 536.383Z" fill="#EBF1F7"/>
<path d="M928.736 543.604C929.976 544.32 930.951 546.035 930.947 547.432C930.943 548.83 929.961 549.416 928.721 548.701L838.186 496.443C836.97 495.742 835.995 494.026 835.999 492.629C836.003 491.232 836.984 490.645 838.2 491.347L928.736 543.604Z" fill="#80B2F5"/>
<path d="M902.637 541.531C903.853 542.233 904.828 543.921 904.824 545.318C904.82 546.715 903.839 547.302 902.623 546.599L838.149 509.376C836.933 508.674 835.959 506.958 835.963 505.562C835.967 504.164 836.948 503.605 838.163 504.307L902.637 541.531Z" fill="#80B2F5"/>
</g>
<g opacity="0.0200083">
<path d="M957.818 607.07C957.641 606.852 957.467 606.631 957.292 606.411L957.29 606.407C957.465 606.629 957.64 606.851 957.818 607.07Z" fill="#AAD2F4"/>
<path d="M974.523 621.622C974.473 621.594 974.423 621.566 974.372 621.538C974.221 621.452 974.068 621.367 973.917 621.279C973.767 621.193 973.617 621.105 973.467 621.016C973.418 620.987 973.37 620.958 973.321 620.928C973.221 620.868 973.12 620.808 973.02 620.747C972.961 620.711 972.903 620.675 972.844 620.639C972.753 620.582 972.662 620.526 972.571 620.47C972.51 620.432 972.45 620.394 972.389 620.356C972.3 620.3 972.212 620.244 972.123 620.187C972.062 620.148 972.003 620.11 971.942 620.07C971.851 620.012 971.761 619.952 971.67 619.893C971.612 619.855 971.555 619.818 971.498 619.78C971.403 619.717 971.309 619.655 971.215 619.591C971.162 619.555 971.108 619.519 971.055 619.483C970.946 619.409 970.837 619.335 970.728 619.26C970.468 619.08 970.321 618.977 970.173 618.872C970.001 618.749 969.87 618.655 969.739 618.561C969.692 618.526 969.643 618.49 969.595 618.455C969.498 618.384 969.4 618.313 969.303 618.241C969.25 618.202 969.197 618.162 969.144 618.122C969.051 618.053 968.958 617.984 968.867 617.913C968.812 617.872 968.758 617.831 968.704 617.79C968.613 617.721 968.522 617.65 968.431 617.58C968.377 617.538 968.323 617.497 968.269 617.455C968.177 617.383 968.086 617.311 967.994 617.239C967.942 617.198 967.89 617.157 967.838 617.116C967.739 617.037 967.641 616.958 967.542 616.879C967.499 616.844 967.456 616.809 967.413 616.774C967.288 616.672 967.162 616.57 967.037 616.467C966.844 616.308 966.7 616.187 966.556 616.065C966.38 615.917 966.257 615.811 966.135 615.706C965.917 615.518 965.816 615.429 965.714 615.34C965.669 615.301 965.624 615.261 965.579 615.222C965.485 615.138 965.391 615.055 965.296 614.971C965.248 614.928 965.2 614.885 965.153 614.842C965.059 614.758 964.965 614.672 964.871 614.587C964.828 614.547 964.784 614.508 964.741 614.467C964.64 614.376 964.54 614.283 964.439 614.19C964.214 613.98 964.1 613.874 963.988 613.766C963.638 613.436 963.36 613.166 963.084 612.894C962.931 612.743 962.806 612.618 962.679 612.492C962.491 612.302 962.383 612.194 962.277 612.085C962.074 611.878 961.975 611.774 961.873 611.67C961.668 611.456 961.565 611.348 961.463 611.241C961.263 611.028 961.153 610.911 961.043 610.792C960.578 610.291 960.179 609.85 959.785 609.402C959.649 609.249 959.526 609.108 959.403 608.965C959.234 608.77 959.126 608.645 959.02 608.519C958.842 608.309 958.737 608.185 958.633 608.061C958.458 607.852 958.351 607.724 958.245 607.594C958.068 607.379 957.95 607.235 957.833 607.089C957.311 606.444 956.812 605.805 956.322 605.159C956.179 604.969 956.07 604.823 955.961 604.677C955.812 604.476 955.706 604.332 955.6 604.187C955.449 603.98 955.339 603.829 955.229 603.676C954.614 602.82 954.035 601.978 953.471 601.125C953.343 600.931 953.24 600.773 953.138 600.617C953.004 600.409 952.901 600.251 952.8 600.092C952.118 599.021 951.48 597.968 950.868 596.901C950.752 596.699 950.659 596.535 950.566 596.37C950.447 596.157 950.353 595.991 950.261 595.825C949.746 594.893 949.267 593.985 948.805 593.069C954.139 592.061 965.059 591.822 965.633 591.81C965.643 591.826 965.814 592.118 966.155 592.627C967.327 594.385 970.399 598.561 974.532 600.947C977.069 602.412 980.006 603.201 983.15 602.341C983.308 602.297 983.467 602.25 983.626 602.198C984.143 602.807 993.964 614.379 999.552 621.728C999.367 621.892 999.18 622.05 998.989 622.204C998.88 622.292 998.795 622.358 998.709 622.424C998.582 622.521 998.503 622.581 998.424 622.639C998.286 622.738 998.205 622.796 998.123 622.854C997.985 622.95 997.892 623.012 997.799 623.074C997.483 623.284 997.173 623.472 996.858 623.649C996.725 623.723 996.635 623.772 996.546 623.82C996.402 623.896 996.314 623.941 996.225 623.986C996.074 624.061 995.978 624.108 995.882 624.154C995.523 624.323 995.188 624.467 994.848 624.598C994.714 624.65 994.615 624.687 994.515 624.723C994.36 624.779 994.266 624.811 994.171 624.843C994.009 624.897 993.907 624.93 993.806 624.962C993.415 625.082 993.058 625.179 992.695 625.265C992.55 625.298 992.444 625.322 992.337 625.345C992.174 625.379 992.074 625.399 991.973 625.418C991.802 625.45 991.701 625.468 991.599 625.485C991.42 625.515 991.305 625.533 991.188 625.549C990.915 625.589 990.658 625.619 990.399 625.645C990.266 625.658 990.145 625.669 990.025 625.678C989.855 625.691 989.75 625.698 989.646 625.704C989.458 625.714 989.354 625.719 989.252 625.723C989.063 625.729 988.952 625.732 988.84 625.734C988.521 625.739 988.254 625.738 987.983 625.731C987.848 625.727 987.72 625.723 987.591 625.717C987.408 625.708 987.301 625.703 987.194 625.695C986.993 625.682 986.892 625.675 986.79 625.666C986.581 625.649 986.475 625.638 986.369 625.628C986.156 625.606 986.031 625.593 985.905 625.577C985.601 625.54 985.323 625.5 985.043 625.456C984.849 625.424 984.741 625.406 984.633 625.387C984.592 625.38 984.553 625.373 984.512 625.366C984.413 625.347 984.314 625.329 984.215 625.31C984.173 625.302 984.13 625.293 984.088 625.285C983.988 625.265 983.887 625.244 983.787 625.223L983.668 625.198C983.556 625.173 983.445 625.149 983.333 625.123C982.965 625.037 982.679 624.966 982.392 624.889C982.185 624.832 982.076 624.802 981.966 624.771C981.922 624.758 981.877 624.745 981.832 624.732C981.735 624.704 981.635 624.674 981.536 624.645C981.488 624.63 981.439 624.616 981.391 624.6C981.296 624.571 981.2 624.542 981.105 624.512C981.054 624.495 981.003 624.479 980.952 624.462C980.853 624.43 980.753 624.398 980.654 624.364C980.609 624.349 980.565 624.335 980.52 624.32C980.395 624.277 980.267 624.232 980.14 624.187C979.941 624.116 979.794 624.063 979.646 624.008C979.435 623.928 979.322 623.886 979.21 623.841C979.16 623.822 979.111 623.802 979.062 623.783C978.964 623.744 978.865 623.705 978.767 623.666C978.714 623.644 978.66 623.622 978.607 623.6C978.513 623.561 978.418 623.522 978.324 623.482C978.268 623.459 978.212 623.435 978.156 623.411C978.06 623.37 977.964 623.328 977.868 623.286C977.816 623.263 977.764 623.241 977.712 623.217C977.602 623.169 977.491 623.118 977.38 623.068C977.116 622.948 976.966 622.878 976.816 622.806C976.622 622.713 976.496 622.652 976.369 622.59C976.319 622.565 976.268 622.54 976.217 622.514C976.118 622.464 976.018 622.415 975.918 622.364C975.861 622.335 975.803 622.306 975.746 622.276C975.652 622.228 975.559 622.179 975.465 622.131C975.405 622.099 975.345 622.067 975.285 622.036C975.191 621.986 975.095 621.935 975 621.884C974.944 621.853 974.886 621.822 974.829 621.791C974.728 621.736 974.625 621.679 974.523 621.622Z" fill="#5464C3"/>
<path d="M957.29 606.407L957.292 606.41C956.966 605.997 956.643 605.583 956.325 605.162C956.642 605.582 956.964 605.995 957.29 606.407Z" fill="#AAD2F4"/>
<path d="M963.794 569.953L964.147 574.158C964.19 574.687 964.259 575.224 964.35 575.767C964.259 575.752 964.158 575.715 964.044 575.649C963.987 575.616 963.926 575.575 963.863 575.528C961.339 573.526 959.937 566.725 961.676 566.641C961.952 566.627 962.212 566.702 962.453 566.842C962.678 566.972 962.887 567.155 963.079 567.371C963.433 568.953 963.709 570.115 963.723 570.176L963.794 569.953Z" fill="#CDDDEC"/>
<path d="M981.801 600.056C982.192 600.86 982.666 601.635 983.15 602.34C980.007 603.201 977.069 602.413 974.532 600.947C970.399 598.561 967.326 594.385 966.155 592.627C966.681 592.485 967.202 592.251 967.628 591.873C968.284 590.46 968.656 587.867 968.833 586.253L972.364 591.3C973.017 592.234 973.789 592.959 974.562 593.405C975.336 593.851 976.109 594.019 976.765 593.841L980.392 592.858C980.465 592.839 980.535 592.817 980.606 592.795C980.763 594.567 981.122 597.78 981.801 600.056Z" fill="#CDDDEC"/>
<path d="M982.828 577.046C984.123 577.794 984.395 577.761 984.408 577.759L985.263 584.105L985.053 586.229C985.01 586.656 984.949 587.068 984.868 587.462C984.301 590.22 982.796 592.118 980.605 592.795C980.535 592.818 980.464 592.838 980.392 592.858L976.765 593.84C976.109 594.019 975.335 593.85 974.562 593.404C973.789 592.958 973.017 592.234 972.364 591.299L968.835 586.253L968.753 586.138C966.495 582.914 964.94 579.23 964.351 575.767C964.259 575.224 964.191 574.687 964.146 574.158L963.795 569.954L966.754 560.662C966.777 560.63 967.218 560.017 968.318 560.651C968.915 560.996 969.699 561.718 970.697 563.126C973.534 567.128 973.834 570.753 978.73 574.302C980.675 575.715 981.972 576.552 982.828 577.046Z" fill="#CDDDEC"/>
<path d="M987.813 581.73C989.546 583.819 988.111 588.984 985.583 588.068C985.519 588.042 985.459 588.012 985.402 587.979C985.181 587.852 985.007 587.675 984.867 587.462C984.949 587.068 985.01 586.656 985.053 586.228L985.263 584.105L985.336 584.653C985.368 584.576 985.957 583.098 986.52 580.85C986.682 580.872 986.855 580.93 987.037 581.035C987.279 581.175 987.538 581.397 987.813 581.73Z" fill="#CDDDEC"/>
<path d="M978.465 555.615C983.668 560.26 986.499 566.434 987.274 572.153C987.678 575.13 987.134 578.402 986.521 580.85C985.958 583.098 985.369 584.575 985.337 584.653L985.263 584.105L984.409 577.758C984.395 577.76 984.123 577.793 982.829 577.045C981.972 576.551 980.675 575.716 978.731 574.301C973.835 570.752 973.535 567.127 970.698 563.126C969.7 561.718 968.915 560.996 968.318 560.651C967.219 560.017 966.777 560.63 966.754 560.662L963.794 569.953L963.724 570.176C963.709 570.115 963.433 568.953 963.08 567.371C962.7 565.672 962.249 563.56 962.008 562.105C961.535 559.29 962.816 553.67 964.877 551.766C966.495 550.28 970.733 550.641 974.996 553.102C976.168 553.778 977.343 554.616 978.465 555.615Z" fill="#FF6129"/>
<path d="M966.154 592.627C965.814 592.117 965.643 591.826 965.633 591.811C965.058 591.823 954.139 592.061 948.802 593.063C944.23 583.973 941.498 574.147 941.524 565.173C941.582 544.543 956.174 536.219 974.128 546.584C992.082 556.95 1006.58 582.068 1006.52 602.698C1006.49 611.749 1003.67 618.432 998.989 622.205C999.18 622.05 999.367 621.891 999.552 621.728C993.964 614.379 984.142 602.808 983.626 602.199C983.467 602.251 983.309 602.298 983.15 602.341C982.665 601.636 982.192 600.861 981.8 600.057C981.121 597.781 980.763 594.568 980.605 592.796C982.796 592.118 984.302 590.22 984.868 587.462C985.007 587.675 985.182 587.853 985.402 587.98C988.111 588.984 989.546 583.82 987.813 581.731C987.538 581.398 987.279 581.175 987.038 581.036C986.855 580.931 986.682 580.873 986.52 580.851C987.133 578.402 987.678 575.131 987.273 572.153C986.498 566.435 983.668 560.26 978.465 555.615C977.343 554.616 976.167 553.78 974.995 553.103C970.732 550.641 966.495 550.28 964.877 551.767C962.815 553.671 961.534 559.29 962.008 562.106C962.248 563.56 962.699 565.673 963.079 567.371C962.887 567.156 962.678 566.972 962.453 566.842C962.212 566.703 961.953 566.626 961.676 566.641C959.937 566.726 961.339 573.527 963.862 575.528C964.158 575.714 964.26 575.752 964.351 575.767C964.94 579.23 966.495 582.914 968.754 586.138C968.656 587.867 968.284 590.46 967.628 591.874C967.202 592.251 966.681 592.485 966.154 592.627Z" fill="#304C85"/>
<path d="M990.386 625.645C990.266 625.658 990.144 625.669 990.024 625.678C990.145 625.669 990.266 625.658 990.386 625.645Z" fill="#AAD2F4"/>
</g>
<path d="M648.675 418.119C652.507 415.891 657.816 416.207 663.674 419.589C675.312 426.308 684.711 442.587 684.673 455.959C684.654 462.606 682.308 467.282 678.525 469.481L673.907 472.165C677.69 469.966 680.037 465.289 680.055 458.643C680.094 445.27 670.695 428.991 659.056 422.272C653.198 418.89 647.89 418.575 644.057 420.802L648.675 418.119Z" fill="#8CE66B"/>
<path d="M659.057 422.272C670.694 428.991 680.092 445.27 680.054 458.643C680.016 472.016 670.556 477.416 658.919 470.697C647.281 463.978 637.874 447.684 637.911 434.312C637.95 420.939 647.419 415.553 659.057 422.272Z" fill="#35BA7B"/>
<path d="M666.628 439.847L671.136 447.677L653.855 457.525L645.453 442.994L650.01 440.398L653.885 447.109L666.628 439.847Z" fill="white"/>
<path d="M453.335 655.509C453.335 685.56 491.676 709.92 538.972 709.92C586.269 709.92 624.608 685.56 624.608 655.509C624.608 625.46 586.269 601.1 538.972 601.1C491.676 601.1 453.335 625.46 453.335 655.509Z" fill="#CDDDEC"/>
<path d="M501.475 644.607L500.71 655.119C500.588 656.799 501.533 658.377 503.085 659.033C504.526 659.644 506.601 660.09 509.352 659.667C515.376 658.74 518.157 655.497 519.084 653.644C520.01 651.79 532.058 643.449 530.668 639.278C528.352 635.108 524.181 639.278 520.01 639.278C515.84 639.278 507.036 637.192 501.475 644.607Z" fill="#232931"/>
<path d="M504.255 483.581C504.255 483.581 501.475 554.479 502.865 576.721C502.865 576.721 497.304 632.327 500.085 645.534C500.085 645.534 509.816 652.485 518.157 646.924C520.242 646.228 520.242 643.449 520.242 643.449C520.242 643.449 525.803 591.318 527.193 575.331C528.583 559.344 539.704 511.384 537.619 500.958C535.533 490.532 522.327 475.935 504.255 483.581Z" fill="#232931"/>
<path d="M549.087 659.436C549.087 659.436 545.264 671.252 548.045 674.032C550.825 676.813 554.3 677.507 556.849 676.697C559.398 675.886 561.83 674.727 561.83 674.727L562.641 672.294L563.568 673.916C563.568 673.916 564.958 673.685 566.812 672.642C568.665 671.6 573.994 669.514 576.195 668.124C578.397 666.734 582.335 664.301 582.683 661.289C582.914 658.277 572.14 659.32 569.244 659.436C566.348 659.551 564.495 658.393 563.452 658.393C562.41 658.393 551.173 659.784 551.173 659.784" fill="#232931"/>
<path d="M566.682 482.263C566.682 482.263 569.592 492.849 569.592 514.164C569.592 535.48 567.739 589.233 567.739 589.233C567.739 589.233 566.811 643.912 565.885 657.814C565.885 657.814 559.398 666.155 548.276 659.667C542.716 653.18 544.57 648.546 544.57 648.546C544.57 648.546 537.155 615.182 539.935 584.598C539.935 584.598 529.741 522.505 527.887 515.091C526.034 507.677 493.702 504.469 506.34 468.289L566.682 482.263Z" fill="#2A3948"/>
<path d="M548.985 515.131C548.985 515.131 563.923 521.667 562.056 543.141C560.189 564.614 556.453 578.619 558.321 591.689C560.188 604.761 562.988 612.23 561.122 628.102C559.602 641.01 554.381 653.299 558.51 661.959C563.263 661.163 565.885 657.814 565.885 657.814C566.812 643.912 567.738 589.232 567.738 589.232C567.738 589.232 569.591 535.48 569.591 514.164C569.591 504.987 569.052 497.81 568.439 492.599L545.25 502.994L548.985 515.131Z" fill="#304C85"/>
<path d="M555.843 345.767C553.793 338.592 546.821 332.339 536.365 332.852C526.322 333.344 518.938 337.768 516.48 345.255C515.023 349.69 515.349 357.457 518.031 363.072C519.348 365.829 521.885 368.351 524.889 370.439L521.976 380.782C524.583 383.923 535.48 387.734 543.145 387.333C543.166 387.332 544.073 383.724 545.038 379.864C550.14 381.296 553.904 377.105 555.74 371.395C557.014 367.432 557.44 351.358 555.843 345.767Z" fill="#FF935C"/>
<path d="M555.843 345.767C553.793 338.592 546.822 332.339 536.366 332.852C536.188 332.86 536.026 332.893 535.849 332.904L516.005 347.161C515.153 351.692 515.701 358.192 518.031 363.072C519.349 365.829 521.885 368.351 524.889 370.439L521.976 380.782C524.584 383.923 535.48 387.734 543.146 387.333C543.167 387.332 544.074 383.724 545.039 379.864C546.885 380.382 548.55 380.145 550.018 379.385C548.533 378.773 547.357 377.239 546.183 375.086C544.316 371.662 550.54 369.484 550.851 366.06C551.162 362.637 548.984 356.725 553.03 353.924C555.109 352.484 555.947 349.985 556.279 347.887C556.153 347.088 556.012 346.359 555.843 345.767Z" fill="#FF6756"/>
<path d="M513.04 345.209C513.04 345.209 513.039 334.473 524.709 331.205C536.38 327.937 537.781 329.337 541.048 327.003C544.316 324.669 548.517 324.202 554.586 326.07C560.654 327.937 561.588 334.005 559.72 339.608C557.853 345.209 556.92 348.477 552.251 350.811C547.584 353.145 548.517 358.747 548.517 358.747C548.517 358.747 549.451 364.816 546.183 367.15L543.382 360.148C543.382 360.148 541.048 368.084 538.715 370.884C536.38 373.685 531.245 375.086 526.11 375.086C520.975 375.086 514.44 362.482 512.572 358.28C510.705 354.079 514.44 350.344 514.44 350.344C514.44 350.344 512.106 348.477 513.04 345.209Z" fill="#304C85"/>
<path d="M550.54 330.271C548.41 326.366 544.261 326.311 541.083 326.982C541.072 326.989 541.059 326.995 541.047 327.003C537.78 329.337 536.38 327.937 524.709 331.205C513.039 334.473 513.039 345.209 513.039 345.209C512.105 348.478 514.44 350.344 514.44 350.344C514.44 350.344 510.704 354.078 512.572 358.28C513.836 361.124 517.241 367.812 520.902 371.84C528.117 370.586 531.29 364.64 530 360.769C528.133 355.168 534.356 360.148 536.25 356.49C538.142 352.832 530 350.189 538.091 342.72C546.183 335.251 554.275 337.117 550.54 330.271Z" fill="#303955"/>
<path d="M573.149 413.981C573.35 409.359 571.138 404.987 567.289 402.421C558.802 396.763 547.261 389.586 539.79 385.641C530.511 380.741 520.899 375.583 515.764 375.105C501.449 373.772 492.837 387.087 494.19 404.577C495.012 415.202 497.843 427.049 501.703 439.208C503.35 444.394 504.459 453.574 504.883 462.012C504.806 466.081 504.446 470.703 503.328 473.386C501.011 478.947 498.694 501.19 498.694 501.19C498.694 501.19 514.45 517.408 534.838 518.798C555.227 520.188 563.105 516.018 563.105 516.018L564.495 506.751L567.275 515.091C567.275 515.091 570.982 513.701 571.446 509.994C571.863 506.651 568.136 478.057 567.401 472.482C568.587 460.924 570.9 443.941 571.628 436.203C572.297 429.097 572.845 420.962 573.149 413.981Z" fill="#304C85"/>
<path d="M522.326 375.214C522.326 375.214 529.045 381.007 545.032 383.323L547.427 389.091C547.427 389.091 541.325 390.738 533.447 389.812C525.57 388.885 519.083 382.628 518.387 381.238L517.693 379.848L522.326 375.214Z" fill="#F9FBFC"/>
<path d="M554.586 414.298C549.918 403.094 533.112 405.896 510.705 397.494C499.924 393.45 498.445 387.249 499.804 381.899C495.571 387.264 493.474 395.321 494.19 404.576C495.012 415.201 497.843 427.048 501.703 439.208C503.35 444.393 504.458 453.574 504.882 462.012C504.806 466.081 504.446 470.703 503.328 473.386C501.011 478.947 498.694 501.19 498.694 501.19C498.694 501.19 514.45 517.408 534.838 518.798C546.212 519.573 553.684 518.619 558.075 517.622C561.3 494.253 546.918 482.791 543.382 472.184C539.648 460.981 559.254 425.502 554.586 414.298Z" fill="#303955"/>
<path d="M569.596 404.313C569.596 404.313 574.156 406.668 575.305 416.078C576.455 425.489 580.057 457.653 582.349 460.914C584.641 464.174 580.694 484.418 573.348 482.928C566.003 481.438 563.884 477.58 562.44 475.863C560.995 474.146 555.002 441.284 553.405 435.634C551.81 429.983 548.912 410.988 556.628 406.752C564.344 402.515 569.596 404.313 569.596 404.313Z" fill="#304C85"/>
<path d="M571.873 470.181C562.757 463.639 559.904 435.581 560.32 420.792C560.532 413.245 562.871 407.679 565.111 404.027C562.907 404.22 560.028 404.885 556.628 406.752C548.912 410.988 551.81 429.984 553.406 435.634C555.002 441.285 560.995 474.146 562.439 475.863C563.884 477.58 580.989 476.725 571.873 470.181Z" fill="#303955"/>
<path d="M625.431 474.842L629.448 475.155C629.448 475.155 637.226 472.099 638.189 472.106C639.15 472.113 648.46 468.728 648.788 470.259C649.117 471.79 647.921 472.687 646.617 473.073C645.312 473.46 642.818 473.782 642.818 473.782L640.085 475.969C640.085 475.969 640.691 478.295 640.4 479.425C640.108 480.555 639.473 482.078 639.473 482.078C639.473 482.078 639.627 484.288 638.031 485.804C636.434 487.321 633.658 487.811 632.133 487.177C630.61 486.543 627.11 485.157 627.11 485.157L624.565 484.742L625.431 474.842Z" fill="#FF935C"/>
<path d="M638.031 485.804C638.948 484.933 639.264 483.877 639.387 483.099C638.137 483.835 636.468 484.652 635.409 484.468C633.554 484.144 630.844 485.024 630.032 482.092C629.22 479.159 626.71 476.194 626.71 476.194L625.372 475.519L624.564 484.742L627.109 485.157C627.109 485.157 630.609 486.542 632.133 487.176C633.656 487.811 636.435 487.32 638.031 485.804Z" fill="#FF6756"/>
<path d="M621.757 473.043L626.624 473.661C626.624 473.661 629.399 476.755 628.321 481.543C627.094 485.83 625.012 486.886 625.012 486.886L621.104 486.199L621.757 473.043Z" fill="#CDDDEC"/>
<path d="M582.351 460.914C584.643 464.175 622.409 471.156 622.409 471.156C622.409 471.156 628.189 478.025 624.656 483.479C621.298 488.336 619.081 487.042 619.081 487.042C619.081 487.042 580.694 484.419 573.349 482.929C566.004 481.438 563.885 477.581 562.44 475.863C561.717 475.004 563.143 466.786 568.015 462.856C572.886 458.926 581.204 459.284 582.351 460.914Z" fill="#304C85"/>
<path d="M619.082 487.042C619.082 487.042 621.298 488.335 624.656 483.479C625.395 482.339 625.71 481.138 625.772 479.95C621.231 479.966 614.835 479.872 608.347 479.379C596.296 478.464 580.988 476.724 571.873 470.181C570.131 468.932 568.619 466.896 567.314 464.319C565.867 461.54 560.995 474.145 562.44 475.862C563.885 477.58 566.003 481.437 573.348 482.928C580.693 484.417 619.082 487.042 619.082 487.042Z" fill="#303955"/>
</g>
<path d="M862.434 198.899L658.827 81.3482C650.021 76.2641 642.047 75.7897 636.29 79.1357L619.432 88.932C625.191 85.5852 633.166 86.0595 641.972 91.1437L845.577 208.695C863.046 218.781 877.2 243.262 877.144 263.37L876.944 333.554C876.916 343.539 873.389 350.559 867.706 353.862L884.561 344.066C890.244 340.763 893.772 333.743 893.801 323.759L894 253.574C894.057 233.467 879.903 208.985 862.434 198.899Z" fill="#0E173A"/>
<path d="M845.578 208.695C863.047 218.78 877.201 243.262 877.144 263.37L876.945 333.553C876.888 353.661 862.642 361.745 845.172 351.66L641.566 234.108C624.067 224.005 609.943 199.541 610 179.433L610.199 109.249C610.257 89.142 624.473 81.041 641.971 91.1437L845.578 208.695Z" fill="#FF6129"/>
<path d="M749.614 217.944C751.201 218.861 752.45 221.057 752.445 222.847C752.44 224.637 751.183 225.388 749.594 224.472L633.635 157.54C632.078 156.641 630.829 154.445 630.835 152.655C630.84 150.865 632.096 150.114 633.654 151.013L749.614 217.944Z" fill="#B83D3D"/>
<path d="M716.185 215.289C717.742 216.188 718.991 218.349 718.986 220.139C718.981 221.929 717.725 222.68 716.167 221.78L633.588 174.105C632.031 173.205 630.783 171.008 630.788 169.218C630.794 167.428 632.05 166.713 633.607 167.612L716.185 215.289Z" fill="#B83D3D"/>
<path d="M813.955 278.75C814.045 279.053 814.132 279.343 814.23 279.641L813.974 279.732C813.964 279.395 813.955 279.069 813.955 278.75Z" fill="#304C85"/>
<path d="M791.215 235.111C791.487 237.438 791.978 239.504 792.759 240.972C792.765 240.964 792.898 240.824 793.107 240.557L793.434 244.491C793.492 245.164 793.589 245.85 793.707 246.545C793.57 246.519 793.416 246.469 793.24 246.367C793.213 246.351 793.185 246.335 793.157 246.317C793.13 246.299 793.1 246.279 793.072 246.258C790.849 244.488 789.306 239.817 789.283 237.035C789.271 235.772 789.574 234.897 790.27 234.864C790.609 234.853 790.917 234.938 791.215 235.111Z" fill="#CDDDEC"/>
<path d="M812.462 268.934C812.536 270.862 812.832 274.904 813.955 278.751C813.955 279.07 813.963 279.396 813.973 279.732C811.464 280.582 809.147 280.114 807.137 279.055C807.004 278.984 806.87 278.91 806.74 278.835C806.672 278.796 806.604 278.755 806.536 278.715C802.633 276.362 800.014 271.915 799.623 271.224C799.59 271.164 799.572 271.135 799.572 271.132C800.851 268.673 801.231 264.733 801.346 262.71L803.96 266.446C804.796 267.643 805.788 268.573 806.78 269.145C807.773 269.719 808.765 269.936 809.606 269.706L812.462 268.934Z" fill="#CDDDEC"/>
<path d="M829.69 296.984C828.471 295.413 826.876 293.522 825.163 291.561C824.989 292.912 824.647 294.246 824.077 295.538C820.745 303.13 814.712 302.662 814.394 302.638C814.46 302.406 815.702 298.004 815.705 293.341C815.706 291.914 815.586 290.484 815.267 289.184C814.953 287.906 814.689 286.553 814.473 285.172C814.191 283.353 814.017 281.505 813.973 279.732C811.464 280.582 809.147 280.114 807.137 279.054C807.003 278.984 806.871 278.91 806.739 278.834C806.672 278.795 806.604 278.754 806.537 278.714C802.633 276.361 800.015 271.915 799.623 271.224C799.589 271.164 799.573 271.134 799.543 271.126C799.215 271.096 788.829 270.058 784.116 270.673C782.475 270.878 780.965 273.823 779.682 277.606C787.034 289.492 796.777 299.767 807.487 305.95C817.709 311.852 827.08 313.011 834.344 310.169C833.028 304.452 831.443 299.23 829.69 296.984Z" fill="#5464C3"/>
<path d="M820.009 271.612C818.972 269.22 818.4 267.314 818.106 265.83C817.198 267.008 816.023 267.848 814.64 268.317C814.511 268.358 814.382 268.42 814.253 268.459L812.462 268.934C812.536 270.861 812.832 274.904 813.954 278.751C814.043 279.054 814.132 279.344 814.23 279.642L813.972 279.732C814.016 281.505 814.19 283.354 814.473 285.173C814.688 286.553 814.952 287.906 815.266 289.184C815.584 290.484 815.705 291.913 815.704 293.341C815.7 298.003 814.459 302.407 814.394 302.639C814.711 302.663 820.745 303.13 824.076 295.538C824.647 294.245 824.987 292.912 825.162 291.561C825.254 290.843 825.298 290.119 825.299 289.39C825.303 283.458 822.436 277.236 820.009 271.612Z" fill="#FF6129"/>
<path d="M819.399 258.967L817.583 250.86C801.864 241.145 796.924 228.049 796.663 227.359C796.733 228.089 796.761 228.793 796.756 229.467C796.729 234.196 795.097 237.573 793.927 239.396C793.606 239.908 793.317 240.288 793.107 240.556L793.435 244.491C793.492 245.165 793.59 245.85 793.708 246.546C794.46 250.978 796.445 255.711 799.335 259.847L801.346 262.709C801.384 261.997 801.384 261.997 801.346 262.709L803.959 266.445C804.796 267.643 805.788 268.573 806.78 269.145C807.773 269.719 808.766 269.935 809.607 269.706L812.462 268.934L814.253 268.459C814.382 268.42 814.511 268.357 814.64 268.317C816.024 267.847 817.199 267.008 818.107 265.83C818.985 264.692 819.626 263.246 819.968 261.502C819.553 260.839 819.406 259.931 819.399 258.967Z" fill="#CDDDEC"/>
<path d="M819.968 261.501L819.978 261.518V261.54L819.968 261.501Z" fill="#304C85"/>
<path d="M819.979 261.518L820.077 261.667L820.037 261.793L819.979 261.541V261.518Z" fill="#304C85"/>
<path d="M819.399 258.967L819.968 261.502C819.553 260.839 819.406 259.931 819.399 258.967Z" fill="#FF926F"/>
<path d="M822.79 253.334C823.091 253.507 823.414 253.781 823.757 254.197C824.45 255.033 824.746 256.253 824.728 257.5C824.686 260.244 823.119 263.12 820.9 262.326C820.829 262.294 820.762 262.259 820.696 262.222C820.634 262.186 820.575 262.147 820.517 262.105C820.346 261.981 820.201 261.835 820.076 261.668C820.307 260.99 821.51 257.412 822.427 253.167C822.485 253.187 822.545 253.21 822.605 253.238C822.665 253.265 822.728 253.298 822.79 253.334Z" fill="#CDDDEC"/>
<path d="M807.757 210.279C830.743 223.55 849.32 255.728 849.245 282.151C849.204 296.817 843.41 306.62 834.344 310.17C833.028 304.452 831.442 299.231 829.69 296.984C828.471 295.413 826.876 293.521 825.162 291.561C825.255 290.843 825.299 290.118 825.3 289.39C825.304 283.457 822.437 277.235 820.009 271.612C818.972 269.22 818.401 267.314 818.107 265.83C818.985 264.691 819.626 263.246 819.979 261.541C820.202 261.835 820.347 261.981 820.518 262.105C823.12 263.119 824.686 260.244 824.728 257.5C824.746 256.253 824.45 255.032 823.757 254.197C823.414 253.781 823.091 253.507 822.79 253.334C823.018 250.41 823.493 247.38 823.507 244.667C823.511 243.908 823.479 243.173 823.402 242.478C822.598 235.034 817.654 225.828 808.279 218.828C808.104 218.698 807.932 218.573 807.76 218.449C807.065 217.954 806.39 217.516 805.733 217.134C798.282 212.923 793.472 215.512 791.999 220.421C791.881 220.815 791.784 221.223 791.71 221.644C791.256 224.194 790.982 227.158 790.962 230.059C790.95 231.799 791.029 233.518 791.215 235.112C790.917 234.939 790.609 234.853 790.271 234.863C789.575 234.896 789.271 235.771 789.283 237.035C789.306 239.817 790.849 244.488 793.072 246.258C793.416 246.468 793.571 246.518 793.707 246.546C794.46 250.978 796.445 255.711 799.336 259.847L801.346 262.709C801.23 264.733 800.851 268.673 799.542 271.127C799.214 271.097 788.829 270.058 784.115 270.673C782.474 270.879 780.966 273.823 779.682 277.605C771.24 263.959 765.947 248.201 765.987 234.082C766.061 207.659 784.761 197.003 807.757 210.279Z" fill="#304C85"/>
<path d="M823.402 242.477C822.598 235.035 817.654 225.828 808.28 218.828C808.104 218.698 807.931 218.573 807.76 218.449C807.066 217.954 806.389 217.516 805.654 217.087C805.592 217.052 805.531 217.018 805.471 216.983C798.282 212.923 793.472 215.512 792 220.421C791.881 220.815 791.784 221.223 791.71 221.644C791.256 224.195 790.983 227.158 790.962 230.059C790.95 231.8 791.029 233.518 791.271 235.144C791.253 235.133 791.234 235.121 791.215 235.111C791.486 237.439 791.978 239.504 792.758 240.972C792.765 240.964 792.898 240.823 793.108 240.556C793.318 240.289 793.606 239.908 793.926 239.396C795.096 237.573 796.728 234.197 796.756 229.469C796.761 228.793 796.732 228.091 796.664 227.36C796.924 228.05 801.864 241.146 817.583 250.861L819.399 258.968L819.978 261.519L820.078 261.667C820.308 260.99 821.511 257.411 822.427 253.167C823.018 250.41 823.493 247.38 823.506 244.667C823.51 243.908 823.479 243.174 823.402 242.477Z" fill="#FF6129"/>
<path d="M290.406 219.059L285.142 216L285.899 483.381L291.163 486.44L290.406 219.059Z" fill="#C0C8CD"/>
<path d="M255 209.953L255.757 477.333L408.095 389.381L407.338 122L255 209.953Z" fill="#CDDDEC"/>
<path d="M427.255 133.203L421.991 130.144L269.653 218.097L274.916 221.156L427.255 133.203Z" fill="white"/>
<path d="M274.917 221.156L275.674 488.537L428.013 400.585L427.255 133.204L274.917 221.156Z" fill="#EBF1F7"/>
<path d="M394.846 190.53L394.857 194.378L306.174 245.579L306.163 241.731L394.846 190.53Z" fill="#AAD2F4"/>
<path d="M356.472 228.039L356.482 231.866L306.217 260.887L306.208 257.06L356.472 228.039Z" fill="#AAD2F4"/>
<path d="M387.758 285.089L387.768 288.917L306.43 335.876L306.42 332.049L387.758 285.089Z" fill="#AAD2F4"/>
<path d="M356.636 286.087L356.646 289.914L306.383 318.933L306.372 315.107L356.636 286.087Z" fill="#AAD2F4"/>
<path d="M370.004 263.013L370.015 266.841L306.339 303.605L306.327 299.778L370.004 263.013Z" fill="#AAD2F4"/>
<path d="M329.335 260.698L329.346 264.526L306.266 277.851L306.255 274.023L329.335 260.698Z" fill="#AAD2F4"/>
<path d="M402.895 358.261L402.895 360.203C402.895 361.347 404.133 362.062 405.124 361.492L414.298 356.207C414.758 355.942 415.042 355.451 415.042 354.919L415.043 352.978C415.044 351.833 413.804 351.118 412.813 351.689L403.64 356.972C403.18 357.238 402.895 357.73 402.895 358.261Z" fill="#0E173A"/>
<path d="M373.845 384.546V386.492C373.845 387.635 375.08 388.35 376.072 387.783L414.293 365.871C414.755 365.607 415.04 365.115 415.04 364.583V362.637C415.041 361.494 413.805 360.778 412.814 361.346L374.593 383.257C374.13 383.521 373.845 384.014 373.845 384.546Z" fill="#0E173A"/>
<path d="M389.599 394.844V396.79C389.598 397.933 390.834 398.648 391.825 398.08L414.288 385.204C414.75 384.939 415.036 384.447 415.036 383.914V381.967C415.036 380.825 413.801 380.109 412.809 380.677L390.347 393.555C389.884 393.82 389.599 394.311 389.599 394.844Z" fill="#0E173A"/>
<path d="M379.771 390.814L379.769 392.76C379.769 393.903 381.005 394.619 381.996 394.05L414.29 375.537C414.752 375.273 415.037 374.781 415.037 374.248L415.039 372.302C415.039 371.159 413.803 370.444 412.811 371.011L380.517 389.525C380.055 389.789 379.771 390.282 379.771 390.814Z" fill="#0E173A"/>
<path d="M352.535 350.724C364.374 357.56 364.372 379.763 352.53 400.274C340.688 420.785 321.461 431.888 309.622 425.052C297.782 418.217 297.784 396.014 309.626 375.503C321.468 354.992 340.695 343.889 352.535 350.724Z" stroke="#0E173A" stroke-width="7.0835"/>
<path d="M316.995 427.063C314.341 426.991 311.85 426.339 309.622 425.052C297.782 418.217 297.784 396.014 309.626 375.503C319.239 358.854 333.717 348.403 345.161 348.714" stroke="#FF6129" stroke-width="7.0835"/>
</g>
<defs>
<linearGradient id="paint0_linear_284_233" x1="363.28" y1="787.253" x2="722.03" y2="787.253" gradientUnits="userSpaceOnUse">
<stop stop-color="white"/>
<stop offset="0.5" stop-color="white" stop-opacity="0.995"/>
<stop offset="1" stop-color="white" stop-opacity="0.99"/>
</linearGradient>
<linearGradient id="paint1_linear_284_233" x1="363.28" y1="787.253" x2="722.03" y2="787.253" gradientUnits="userSpaceOnUse">
<stop stop-color="white"/>
<stop offset="0.6" stop-color="#E5EDF5"/>
<stop offset="1" stop-color="#CBDCEB"/>
</linearGradient>
<linearGradient id="paint2_linear_284_233" x1="316.13" y1="658.287" x2="757.564" y2="658.287" gradientUnits="userSpaceOnUse">
<stop stop-color="white"/>
<stop offset="0.5" stop-color="white" stop-opacity="0.995"/>
<stop offset="1" stop-color="white" stop-opacity="0.99"/>
</linearGradient>
<linearGradient id="paint3_linear_284_233" x1="316.13" y1="658.287" x2="757.564" y2="658.287" gradientUnits="userSpaceOnUse">
<stop stop-color="white"/>
<stop offset="0.6" stop-color="#E5EDF5"/>
<stop offset="1" stop-color="#CBDCEB"/>
</linearGradient>
<clipPath id="clip0_284_233">
<rect width="1025" height="1025" fill="white"/>
</clipPath>
</defs>
</svg>
