<svg width="232" height="59" viewBox="0 0 232 59" fill="none" xmlns="http://www.w3.org/2000/svg">
<g clip-path="url(#clip0_5_30)">
<path d="M90.1356 15.4934C91.5051 15.6151 92.4758 16.0324 93.0479 16.7454C93.6373 17.4757 93.932 18.4669 93.932 19.7188C93.932 20.9708 93.5333 24.3442 92.7359 29.8391C91.9211 35.3513 91.5138 39.2029 91.5138 41.3939C91.5138 43.6023 91.6871 45.1064 92.0338 45.9063C90.439 45.3672 89.3296 44.6543 88.7055 43.7675C88.0815 42.8633 87.7694 41.7852 87.7694 40.5332C87.7694 39.2986 88.0468 36.6816 88.6015 32.6821C89.1389 28.7001 89.4943 25.6571 89.6676 23.5531C88.6795 25.4832 87.024 28.2132 84.7012 31.7432C82.3783 35.2731 81.0349 37.3336 80.6709 37.9249C80.0988 38.2552 79.4921 38.4204 78.8507 38.4204C77.7066 38.4204 77.0652 38.2118 76.9265 37.7944C76.6665 37.1163 76.2505 36.0295 75.6784 34.534C75.1064 33.0386 74.6383 31.8127 74.2743 30.8563C73.1996 28.1785 72.2375 25.9266 71.3881 24.1008C71.3707 24.2747 71.0761 26.6222 70.504 31.1432C69.932 35.6643 69.6459 39.2638 69.6459 41.9417C69.6459 42.6894 69.6979 43.6979 69.8019 44.9673C67.2711 44.9673 66.0056 44.2022 66.0056 42.672C66.0056 42.4459 66.4737 39.1421 67.4097 32.7604C68.3458 26.3613 68.8139 21.9098 68.8139 19.4058V19.2233C68.1031 18.0756 67.3577 17.1366 66.5777 16.4063C67.1671 15.7803 67.8865 15.4673 68.7359 15.4673C70.3827 15.4673 71.7088 16.3976 72.7142 18.2582C73.7196 20.1188 75.9645 25.6397 79.4488 34.821C79.5181 34.9601 79.5614 35.0644 79.5788 35.134C79.8041 34.8036 80.4022 33.9254 81.3729 32.4996C82.3437 31.0911 83.0804 30.0043 83.5831 29.2392C84.0685 28.4741 84.7532 27.3786 85.6373 25.9527C86.504 24.5268 87.1801 23.3009 87.6654 22.275C89.0175 19.5102 89.8409 17.2496 90.1356 15.4934ZM104.593 16.954C104.593 17.4409 104.324 18.3451 103.787 19.6667C103.249 20.9708 102.981 22.0315 102.981 22.8488C102.981 23.6661 103.059 24.4051 103.215 25.0659C101.152 25.0659 100.12 24.0312 100.12 21.962C100.12 21.2491 100.32 20.2666 100.719 19.0146C101.117 17.7626 101.317 16.841 101.317 16.2498C101.317 15.6412 101.247 15.0847 101.109 14.5805C103.431 14.5805 104.593 15.3717 104.593 16.954ZM112.159 33.4907C112.922 30.013 114.014 27.5003 115.436 25.9527C116.875 24.4051 118.27 23.6313 119.622 23.6313C120.992 23.6313 122.058 24.0486 122.82 24.8833C123.583 25.7006 123.964 26.8656 123.964 28.3784C123.964 29.8739 123.54 31.2128 122.69 32.3952C121.841 33.5603 120.671 34.4297 119.18 35.0035L119.622 36.3338C120.419 38.8551 121.59 41.3417 123.132 43.7936C124.658 46.2454 125.889 47.9234 126.825 48.8276C126.183 49.0536 125.559 49.1667 124.953 49.1667C124.363 49.1667 123.765 49.0102 123.158 48.6972C122.552 48.4016 122.023 48.0625 121.572 47.6799C121.122 47.2974 120.654 46.7062 120.168 45.9063C119.665 45.089 119.267 44.3935 118.972 43.8196C118.677 43.2632 118.313 42.4111 117.88 41.2635C117.412 40.0811 116.771 38.2813 115.956 35.8643C115.644 35.8991 115.184 35.9165 114.578 35.9165C114.422 35.7947 114.344 35.4035 114.344 34.7427C115.436 34.7079 116.406 34.4906 117.256 34.0906C118.105 33.6733 118.747 33.143 119.18 32.4996C120.116 31.2128 120.584 29.9173 120.584 28.6132C120.584 27.9524 120.428 27.4047 120.116 26.9699C119.821 26.5526 119.379 26.344 118.79 26.344C117.767 26.344 116.736 27.0221 115.696 28.3784C114.656 29.7174 113.78 31.5693 113.07 33.9341C112.341 36.299 111.977 38.7682 111.977 41.3417C111.977 42.785 112.055 43.9327 112.211 44.7847C111.622 44.8369 111.293 44.863 111.223 44.863C110.079 44.863 109.23 44.6195 108.675 44.1326C108.138 43.6457 107.869 42.8806 107.869 41.8373C107.869 40.8114 108.077 38.8204 108.493 35.8643C109.793 26.8048 110.443 19.9275 110.443 15.2325C110.443 13.1111 110.305 11.6852 110.027 10.9549C111.431 11.4766 112.42 12.233 112.992 13.2241C113.564 14.2327 113.85 15.6064 113.85 17.3453C113.85 18.5625 113.607 21.1186 113.122 25.0137C112.654 28.9088 112.333 31.7345 112.159 33.4907ZM134.079 30.4912C133.369 31.7084 132.831 32.9604 132.467 34.2471C132.086 35.5165 131.895 36.7424 131.895 37.9249C131.895 39.0899 132.155 40.0811 132.675 40.8983C133.195 41.7156 133.941 42.1242 134.911 42.1242C136.281 42.1242 137.555 41.3765 138.734 39.8811C139.93 38.3683 140.849 36.5511 141.49 34.4297C142.131 32.2909 142.452 30.3173 142.452 28.5088C142.452 26.7004 142.383 25.2137 142.244 24.0486C142.816 23.9965 143.18 23.9704 143.336 23.9704C145.399 23.9704 146.43 25.0311 146.43 27.1525C146.43 27.6046 146.136 29.4826 145.546 32.7865C144.957 36.0903 144.662 38.7334 144.662 40.7157C144.662 42.6981 145.044 44.4543 145.806 45.9845C144.281 45.6715 143.171 44.9934 142.478 43.9501C141.785 42.9241 141.438 41.4374 141.438 39.4898C141.438 39.1421 141.481 38.4813 141.568 37.5075C140.927 39.8202 139.774 41.6808 138.11 43.0893C136.463 44.5152 134.851 45.2281 133.273 45.2281C131.678 45.2281 130.396 44.6195 129.425 43.4023C128.454 42.2025 127.969 40.5419 127.969 38.4204C127.969 36.2816 128.359 34.195 129.139 32.1605C129.936 30.126 131.132 28.3697 132.727 26.8917C134.305 25.3963 136.081 24.6486 138.058 24.6486C138.907 24.6486 139.834 24.8224 140.84 25.1702C139.418 25.5354 138.11 26.2048 136.914 27.1786C135.735 28.1524 134.79 29.2566 134.079 30.4912ZM168.922 28.9001C168.922 30.013 168.688 31.9866 168.22 34.821C167.735 37.6553 167.492 39.7246 167.492 41.0287C167.492 42.3155 167.648 43.2458 167.96 43.8196C168.289 44.3935 168.827 44.8803 169.572 45.2803C169.26 45.3151 168.81 45.3325 168.22 45.3325C166.573 45.3325 165.403 45.0195 164.71 44.3935C164.016 43.7675 163.67 42.6546 163.67 41.0548C163.67 40.1506 163.912 38.3335 164.398 35.6035C164.883 32.856 165.126 30.8389 165.126 29.5522C165.126 27.9524 164.641 27.1525 163.67 27.1525C162.127 27.1525 160.524 28.5262 158.859 31.2737C157.195 34.0211 156.363 37.3336 156.363 41.2113C156.363 42.7415 156.433 43.9327 156.571 44.7847C155.947 44.8369 155.574 44.863 155.453 44.863C153.321 44.863 152.255 43.8109 152.255 41.7069C152.255 41.22 152.506 39.3507 153.009 36.099C153.512 32.83 153.763 30.2303 153.763 28.3002C153.763 26.3526 153.564 24.5703 153.165 22.9531C154.586 23.5096 155.583 24.3008 156.155 25.3267C156.727 26.37 157.013 27.5525 157.013 28.874C157.013 30.1956 156.866 31.7345 156.571 33.4907C157.369 30.7433 158.625 28.4306 160.341 26.5526C162.058 24.6572 163.652 23.7096 165.126 23.7096C167.657 23.7096 168.922 25.4397 168.922 28.9001ZM177.737 37.4032C177.737 38.7943 177.997 39.9246 178.517 40.794C179.054 41.6808 179.886 42.1242 181.013 42.1242C182.14 42.1242 183.171 41.62 184.107 40.6114C185.044 39.5855 185.798 38.2205 186.37 36.5164C186.942 34.7949 187.444 32.9691 187.878 31.0389C188.294 29.0914 188.597 27.0221 188.788 24.8311C189.152 20.7796 189.334 17.5539 189.334 15.1543C189.334 12.772 189.239 10.9984 189.048 9.83334C191.544 10.6332 192.792 13.1546 192.792 17.3974C192.792 19.1189 192.385 22.5967 191.57 27.8307C190.755 33.0647 190.348 36.8902 190.348 39.3073C190.348 41.7069 190.461 43.7501 190.686 45.4368C189.299 44.9673 188.354 44.1413 187.852 42.9589C187.332 41.7591 187.072 40.2376 187.072 38.3943C186.326 40.481 185.217 42.1329 183.743 43.3501C182.253 44.5674 180.719 45.176 179.141 45.176C177.546 45.176 176.255 44.5674 175.267 43.3501C174.279 42.1155 173.785 40.3071 173.785 37.9249C173.785 33.9428 174.825 30.6737 176.905 28.1176C178.985 25.5615 181.568 24.2834 184.654 24.2834C185.52 24.2834 186.448 24.4225 187.436 24.7007C185.789 24.9615 184.315 25.5615 183.015 26.5005C181.698 27.4394 180.675 28.5436 179.947 29.813C178.474 32.3865 177.737 34.9166 177.737 37.4032ZM201.893 32.9169C202.777 29.7521 203.826 27.4221 205.039 25.9266C206.27 24.4312 207.414 23.6835 208.472 23.6835C209.529 23.6835 210.326 24.0747 210.864 24.8572C211.384 25.6571 211.644 26.6656 211.644 27.8829C211.644 29.1001 211.332 30.1521 210.708 31.0389C210.084 31.9257 209.165 32.3692 207.951 32.3692C207.553 32.3692 207.249 32.3431 207.041 32.2909C207.856 31.0911 208.263 29.8739 208.263 28.6393C208.263 27.7698 207.917 27.3351 207.223 27.3351C206.651 27.3351 206.053 27.6568 205.429 28.3002C204.805 28.961 204.198 29.8739 203.609 31.0389C203.02 32.2213 202.534 33.7429 202.153 35.6035C201.772 37.4814 201.581 39.5072 201.581 41.6808C201.581 41.9243 201.642 42.9589 201.763 44.7847C201.122 44.8369 200.758 44.863 200.671 44.863C198.521 44.863 197.447 43.8109 197.447 41.7069C197.447 41.22 197.707 39.3507 198.227 36.099C198.729 32.83 198.981 30.2303 198.981 28.3002C198.981 26.3526 198.773 24.5703 198.357 22.9531C199.795 23.5096 200.801 24.3008 201.373 25.3267C201.945 26.37 202.231 27.5786 202.231 28.9523C202.231 30.326 202.118 31.6475 201.893 32.9169ZM229.169 20.9708C229.135 21.2317 229.005 21.4838 228.779 21.7272C228.554 21.9533 228.294 22.1011 227.999 22.1707C227.132 21.0752 226.014 19.9971 224.645 18.9363C223.258 17.8582 221.863 17.1018 220.459 16.6671C220.511 15.3977 221.091 14.3979 222.201 13.6676C223.501 14.1718 224.836 15.1804 226.205 16.6932C227.574 18.1886 228.563 19.6145 229.169 20.9708ZM219.262 30.4912C218.552 31.7084 218.014 32.9604 217.65 34.2471C217.269 35.5165 217.078 36.7424 217.078 37.9249C217.078 39.0899 217.338 40.0811 217.858 40.8983C218.378 41.7156 219.124 42.1242 220.094 42.1242C221.464 42.1242 222.738 41.3765 223.917 39.8811C225.113 38.3683 226.032 36.5511 226.673 34.4297C227.314 32.2909 227.635 30.3173 227.635 28.5088C227.635 26.7004 227.566 25.2137 227.427 24.0486C227.999 23.9965 228.363 23.9704 228.519 23.9704C230.582 23.9704 231.613 25.0311 231.613 27.1525C231.613 27.6046 231.319 29.4826 230.729 32.7865C230.14 36.0903 229.845 38.7334 229.845 40.7157C229.845 42.6981 230.227 44.4543 230.989 45.9845C229.464 45.6715 228.354 44.9934 227.661 43.9501C226.968 42.9241 226.621 41.4374 226.621 39.4898C226.621 39.1421 226.664 38.4813 226.751 37.5075C226.11 39.8202 224.957 41.6808 223.293 43.0893C221.646 44.5152 220.034 45.2281 218.456 45.2281C216.862 45.2281 215.579 44.6195 214.608 43.4023C213.637 42.2025 213.152 40.5419 213.152 38.4204C213.152 36.2816 213.542 34.195 214.322 32.1605C215.119 30.126 216.315 28.3697 217.91 26.8917C219.488 25.3963 221.265 24.6486 223.241 24.6486C224.09 24.6486 225.018 24.8224 226.023 25.1702C224.602 25.5354 223.293 26.2048 222.097 27.1786C220.918 28.1524 219.973 29.2566 219.262 30.4912Z" fill="black"/>
<path d="M0.326767 53.1V59H53.262V0H0.326767V47.2H41.4986V11.8H12.0901V35.4H29.7352V23.6H23.8535V29.5H17.9718V17.7H35.6169V41.3H6.20846V5.9H47.3803V53.1H0.326767Z" fill="black"/>
</g>
<defs>
<clipPath id="clip0_5_30">
<rect width="232" height="59" fill="white"/>
</clipPath>
</defs>
</svg>
