<svg width="30" height="30" viewBox="0 0 30 30" fill="none" xmlns="http://www.w3.org/2000/svg">
<path d="M18.9897 0.5C16.1173 0.500079 13.6919 1.50605 11.6841 3.52734C9.67476 5.54994 8.67529 7.97924 8.67529 10.8428C8.67532 11.9928 8.85609 13.0898 9.21631 14.1367C9.57605 15.1822 10.1162 16.1668 10.8413 17.0908L11.1167 17.4414L10.8003 17.7549L0.776855 27.6953L0.774902 27.6973C0.591279 27.8771 0.500488 28.091 0.500488 28.3721C0.500575 28.6534 0.591948 28.8717 0.778809 29.0586L0.780762 29.0605C0.97225 29.2541 1.19286 29.3466 1.47314 29.3467C1.75262 29.3467 1.96011 29.2555 2.13232 29.0713L2.13818 29.0645L2.14404 29.0586L12.1255 19.0869L12.4517 18.7607L12.8032 19.0596C13.5799 19.7187 14.4923 20.2369 15.5464 20.6113C16.5954 20.9842 17.7214 21.1728 18.9272 21.1729C21.8484 21.1729 24.3033 20.165 26.3218 18.1445C28.3423 16.1216 29.3472 13.6942 29.3472 10.8359C29.3471 7.97798 28.3418 5.55124 26.3188 3.52832C24.2966 1.50585 21.8627 0.5 18.9897 0.5ZM18.9663 2.33887C21.3328 2.33896 23.3601 3.17203 25.0181 4.8291C26.6743 6.48484 27.5082 8.49643 27.5083 10.8359C27.5083 13.1756 26.6746 15.1879 25.019 16.8438C23.3621 18.5009 21.3345 19.3329 18.9663 19.333C16.6193 19.333 14.6113 18.4999 12.9731 16.8418C11.3368 15.1855 10.5142 13.1737 10.5142 10.8359C10.5142 8.49819 11.3377 6.48729 12.9751 4.83105C14.614 3.17307 16.6211 2.33887 18.9663 2.33887Z" fill="#E64A22" stroke="#E64A22"/>
</svg>
