<svg width="400" height="400" viewBox="0 0 400 400" fill="none" xmlns="http://www.w3.org/2000/svg">
<g filter="url(#filter0_f_462_41)">
<path d="M243.724 48.3882C213.809 48.3883 188.401 58.9194 167.471 79.9907C146.536 101.063 136.074 126.495 136.074 156.313C136.074 168.296 137.96 179.764 141.73 190.721C145.5 201.677 151.156 211.962 158.701 221.576L158.976 221.925L158.659 222.239L58.4258 321.643L58.4238 321.645C55.6902 324.322 54.3242 327.631 54.3242 331.605C54.3242 335.582 55.6908 338.923 58.4277 341.66L58.4297 341.662C61.2012 344.463 64.5673 345.859 68.5576 345.859C72.5446 345.859 75.8239 344.463 78.4336 341.671L78.4453 341.66L178.263 241.939L178.588 241.613L178.939 241.912C187.156 248.886 196.769 254.33 207.783 258.242C218.792 262.155 230.563 264.113 243.099 264.113C273.48 264.113 299.18 253.581 320.229 232.51C341.277 211.437 351.795 186.026 351.795 156.25C351.795 126.475 341.264 101.065 320.191 79.9917C299.122 58.9192 273.642 48.3882 243.724 48.3882ZM243.482 75.7798C265.972 75.7798 285.094 83.6427 300.819 99.3599C316.541 115.076 324.407 134.048 324.407 156.25C324.407 178.453 316.545 197.426 300.832 213.142C285.117 228.859 265.991 236.721 243.482 236.721C221.203 236.721 202.284 228.857 186.756 213.139C171.23 197.423 163.462 178.451 163.462 156.25C163.462 134.05 171.235 115.078 186.772 99.3618C202.309 83.6438 221.222 75.7798 243.482 75.7798Z" fill="#FF98AB" stroke="#FF98AB"/>
</g>
<defs>
<filter id="filter0_f_462_41" x="-30" y="-30" width="460" height="460" filterUnits="userSpaceOnUse" color-interpolation-filters="sRGB">
<feFlood flood-opacity="0" result="BackgroundImageFix"/>
<feBlend mode="normal" in="SourceGraphic" in2="BackgroundImageFix" result="shape"/>
<feGaussianBlur stdDeviation="15" result="effect1_foregroundBlur_462_41"/>
</filter>
</defs>
</svg>
