<svg width="400" height="400" viewBox="0 0 400 400" fill="none" xmlns="http://www.w3.org/2000/svg">
<g filter="url(#filter0_f_227_636)">
<path d="M200 340.037C229.111 330.049 253.254 312.218 272.429 286.546C291.601 260.871 302.854 232.022 306.187 200H200V61.4125L92.5625 101.529V182.5C92.5625 185.767 92.6319 188.614 92.7708 191.042C92.9097 193.469 93.2569 196.456 93.8125 200H200V340.037ZM200 367.392C198.411 367.392 196.893 367.236 195.446 366.925C193.996 366.614 192.51 366.147 190.987 365.525C152.043 352.469 121.172 328.768 98.375 294.421C75.575 260.074 64.175 222.628 64.175 182.083V101.112C64.175 95.1042 65.8861 89.632 69.3083 84.6958C72.7278 79.7597 77.1639 76.2195 82.6167 74.075L190.054 33.9583C193.443 32.7139 196.758 32.0917 200 32.0917C203.242 32.0917 206.557 32.7139 209.946 33.9583L317.383 74.075C322.836 76.2195 327.289 79.7597 330.742 84.6958C334.197 89.632 335.925 95.1042 335.925 101.112V182.083C335.925 222.628 324.508 260.074 301.675 294.421C278.844 328.768 247.957 352.469 209.012 365.525C207.49 366.147 206.004 366.614 204.554 366.925C203.107 367.236 201.589 367.392 200 367.392Z" fill="#FF98AB"/>
</g>
<defs>
<filter id="filter0_f_227_636" x="-30" y="-30" width="460" height="460" filterUnits="userSpaceOnUse" color-interpolation-filters="sRGB">
<feFlood flood-opacity="0" result="BackgroundImageFix"/>
<feBlend mode="normal" in="SourceGraphic" in2="BackgroundImageFix" result="shape"/>
<feGaussianBlur stdDeviation="15" result="effect1_foregroundBlur_227_636"/>
</filter>
</defs>
</svg>
