<svg width="28" height="34" viewBox="0 0 28 34" fill="none" xmlns="http://www.w3.org/2000/svg">
<path d="M13.5825 30.7946C16.4936 29.7957 18.9079 28.0126 20.8254 25.4454C22.7426 22.8779 23.8679 19.9931 24.2012 16.7908H13.5825V2.93208L2.83875 6.94375V15.0408C2.83875 15.3675 2.84569 15.6522 2.85958 15.895C2.87347 16.1378 2.90819 16.4364 2.96375 16.7908H13.5825V30.7946ZM13.5825 33.53C13.4236 33.53 13.2718 33.5144 13.1271 33.4833C12.9821 33.4522 12.8335 33.4056 12.6812 33.3433C8.7868 32.0378 5.69972 29.6676 3.42 26.2329C1.14 22.7982 0 19.0536 0 14.9992V6.90208C0 6.30125 0.171111 5.75403 0.513333 5.26042C0.855277 4.76681 1.29889 4.41278 1.84417 4.19833L12.5879 0.186666C12.9268 0.0622214 13.2583 0 13.5825 0C13.9067 0 14.2382 0.0622214 14.5771 0.186666L25.3208 4.19833C25.8661 4.41278 26.3114 4.76681 26.6567 5.26042C27.0022 5.75403 27.175 6.30125 27.175 6.90208V14.9992C27.175 19.0536 26.0333 22.7982 23.75 26.2329C21.4669 29.6676 18.3782 32.0378 14.4837 33.3433C14.3315 33.4056 14.1829 33.4522 14.0379 33.4833C13.8932 33.5144 13.7414 33.53 13.5825 33.53Z" fill="#E64A22"/>
</svg>
